<svg width="124" height="18" viewBox="0 0 124 18" fill="none" xmlns="http://www.w3.org/2000/svg">
<path d="M10.592 17.2562V16.0322H1.856L7.064 10.6802C9.056 8.66423 10.208 6.93623 10.208 5.01622C10.208 3.52822 9.704 2.35222 8.72 1.48823C7.736 0.624225 6.584 0.192225 5.216 0.192225C2.984 0.192225 1.112 1.29623 0.128 3.31222L1.208 3.96023C2 2.25623 3.344 1.41622 5.216 1.41622C7.328 1.41622 8.912 2.78422 8.912 5.01622C8.912 6.31222 8 7.89623 6.2 9.76823L0.032 16.1042V17.2562H10.592ZM14.9443 1.96823L15.2563 3.07223L19.1443 1.84823V17.2562H20.4163V0.456224H19.3363L14.9443 1.96823ZM28.721 17.1842C29.129 16.7762 29.129 16.0562 28.721 15.6482C28.313 15.2402 27.593 15.2402 27.185 15.6482C26.777 16.0562 26.777 16.7762 27.185 17.1842C27.593 17.5922 28.313 17.5922 28.721 17.1842ZM33.7824 1.96823L34.0944 3.07223L37.9824 1.84823V17.2562H39.2544V0.456224H38.1744L33.7824 1.96823ZM56.4151 15.1682C57.5191 13.6082 58.0711 11.4962 58.0711 8.85623C58.0711 6.21623 57.5191 4.10422 56.4151 2.54422C55.3111 0.984225 53.7751 0.192225 51.7831 0.192225C49.7911 0.192225 48.2551 0.984225 47.1511 2.54422C46.0471 4.10422 45.4951 6.21623 45.4951 8.85623C45.4951 11.4962 46.0471 13.6082 47.1511 15.1682C48.2551 16.7282 49.7911 17.5202 51.7831 17.5202C53.7751 17.5202 55.3111 16.7282 56.4151 15.1682ZM48.1111 14.3522C47.2231 13.0322 46.7911 11.2082 46.7911 8.85623C46.7911 6.50423 47.2231 4.68022 48.1111 3.38423C48.9991 2.06423 50.2231 1.41622 51.7831 1.41622C53.3431 1.41622 54.5671 2.06423 55.4551 3.38423C56.3431 4.68022 56.7751 6.50423 56.7751 8.85623C56.7751 11.2082 56.3431 13.0322 55.4551 14.3522C54.5671 15.6482 53.3431 16.2962 51.7831 16.2962C50.2231 16.2962 48.9991 15.6482 48.1111 14.3522ZM64.8298 17.1842C65.2378 16.7762 65.2378 16.0562 64.8298 15.6482C64.4218 15.2402 63.7018 15.2402 63.2938 15.6482C62.8858 16.0562 62.8858 16.7762 63.2938 17.1842C63.7018 17.5922 64.4218 17.5922 64.8298 17.1842ZM81.0751 17.2562V16.0322H72.3391L77.5471 10.6802C79.5391 8.66423 80.6911 6.93623 80.6911 5.01622C80.6911 3.52822 80.1871 2.35222 79.2031 1.48823C78.2191 0.624225 77.0671 0.192225 75.6991 0.192225C73.4671 0.192225 71.5951 1.29623 70.6111 3.31222L71.6911 3.96023C72.4831 2.25623 73.8271 1.41622 75.6991 1.41622C77.8111 1.41622 79.3951 2.78422 79.3951 5.01622C79.3951 6.31222 78.4831 7.89623 76.6831 9.76823L70.5151 16.1042V17.2562H81.0751ZM96.977 15.1682C98.081 13.6082 98.633 11.4962 98.633 8.85623C98.633 6.21623 98.081 4.10422 96.977 2.54422C95.873 0.984225 94.337 0.192225 92.345 0.192225C90.353 0.192225 88.817 0.984225 87.713 2.54422C86.609 4.10422 86.057 6.21623 86.057 8.85623C86.057 11.4962 86.609 13.6082 87.713 15.1682C88.817 16.7282 90.353 17.5202 92.345 17.5202C94.337 17.5202 95.873 16.7282 96.977 15.1682ZM88.673 14.3522C87.785 13.0322 87.353 11.2082 87.353 8.85623C87.353 6.50423 87.785 4.68022 88.673 3.38423C89.561 2.06423 90.785 1.41622 92.345 1.41622C93.905 1.41622 95.129 2.06423 96.017 3.38423C96.905 4.68022 97.337 6.50423 97.337 8.85623C97.337 11.2082 96.905 13.0322 96.017 14.3522C95.129 15.6482 93.905 16.2962 92.345 16.2962C90.785 16.2962 89.561 15.6482 88.673 14.3522ZM114.14 17.2562V16.0322H105.404L110.612 10.6802C112.604 8.66423 113.756 6.93623 113.756 5.01622C113.756 3.52822 113.252 2.35222 112.268 1.48823C111.284 0.624225 110.132 0.192225 108.764 0.192225C106.532 0.192225 104.66 1.29623 103.676 3.31222L104.756 3.96023C105.548 2.25623 106.892 1.41622 108.764 1.41622C110.876 1.41622 112.46 2.78422 112.46 5.01622C112.46 6.31222 111.548 7.89623 109.748 9.76823L103.58 16.1042V17.2562H114.14ZM118.492 1.96823L118.804 3.07223L122.692 1.84823V17.2562H123.964V0.456224H122.884L118.492 1.96823Z" fill="black"/>
</svg>
