<svg width="234" height="18" viewBox="0 0 234 18" fill="none" xmlns="http://www.w3.org/2000/svg">
<path d="M0.408 1.96823L0.72 3.07223L4.608 1.84823V17.2562H5.88V0.456224H4.8L0.408 1.96823ZM23.0408 15.1682C24.1448 13.6082 24.6968 11.4962 24.6968 8.85623C24.6968 6.21623 24.1448 4.10422 23.0408 2.54422C21.9368 0.984225 20.4008 0.192225 18.4088 0.192225C16.4168 0.192225 14.8808 0.984225 13.7768 2.54422C12.6728 4.10422 12.1208 6.21623 12.1208 8.85623C12.1208 11.4962 12.6728 13.6082 13.7768 15.1682C14.8808 16.7282 16.4168 17.5202 18.4088 17.5202C20.4008 17.5202 21.9368 16.7282 23.0408 15.1682ZM14.7368 14.3522C13.8488 13.0322 13.4168 11.2082 13.4168 8.85623C13.4168 6.50423 13.8488 4.68022 14.7368 3.38423C15.6248 2.06423 16.8488 1.41622 18.4088 1.41622C19.9688 1.41622 21.1928 2.06423 22.0808 3.38423C22.9688 4.68022 23.4008 6.50423 23.4008 8.85623C23.4008 11.2082 22.9688 13.0322 22.0808 14.3522C21.1928 15.6482 19.9688 16.2962 18.4088 16.2962C16.8488 16.2962 15.6248 15.6482 14.7368 14.3522ZM54.0604 15.0002C55.7404 13.2962 56.5804 11.2562 56.5804 8.85623C56.5804 6.45623 55.7404 4.41622 54.0604 2.73623C52.3804 1.03222 50.3404 0.192225 47.9164 0.192225C45.4924 0.192225 43.4524 1.03222 41.7724 2.73623C40.0924 4.41622 39.2524 6.45623 39.2524 8.85623C39.2524 11.2562 40.0924 13.2962 41.7724 15.0002C43.4524 16.6802 45.4924 17.5202 47.9164 17.5202C50.3404 17.5202 52.3804 16.6802 54.0604 15.0002ZM42.6604 14.1362C41.2444 12.6722 40.5244 10.9202 40.5244 8.85623C40.5244 6.79223 41.2444 5.04023 42.6604 3.60023C44.1004 2.13622 45.8524 1.41622 47.9164 1.41622C49.9804 1.41622 51.7324 2.13622 53.1484 3.60023C54.5884 5.04023 55.3084 6.79223 55.3084 8.85623C55.3084 10.9202 54.5884 12.6722 53.1484 14.1362C51.7324 15.5762 49.9804 16.2962 47.9164 16.2962C45.8524 16.2962 44.1004 15.5762 42.6604 14.1362ZM70.4621 17.5202C73.5581 17.5202 76.3421 15.9122 77.7101 13.4162L76.5821 12.7682C75.4541 14.9042 73.0781 16.2962 70.4621 16.2962C68.2781 16.2962 66.5021 15.5762 65.0861 14.1602C63.6941 12.7202 62.9981 10.9442 62.9981 8.85623C62.9981 6.76823 63.6941 4.99222 65.0861 3.57622C66.5021 2.13622 68.2781 1.41622 70.4621 1.41622C71.7821 1.41622 72.9821 1.72823 74.0621 2.37623C75.1421 3.00022 75.9821 3.84023 76.5341 4.87222L77.6621 4.22422C76.9661 3.00022 75.9581 2.01622 74.6861 1.29623C73.4141 0.552225 71.9981 0.192225 70.4621 0.192225C67.9421 0.192225 65.8541 1.03222 64.1981 2.71223C62.5421 4.36823 61.7261 6.43222 61.7261 8.85623C61.7261 11.2802 62.5421 13.3442 64.1981 15.0242C65.8541 16.6802 67.9421 17.5202 70.4621 17.5202ZM81.8192 0.456224V1.65622H87.0992V17.2562H88.3952V1.65622H93.6752V0.456224H81.8192ZM112.083 15.0002C113.763 13.2962 114.603 11.2562 114.603 8.85623C114.603 6.45623 113.763 4.41622 112.083 2.73623C110.403 1.03222 108.363 0.192225 105.939 0.192225C103.515 0.192225 101.475 1.03222 99.7952 2.73623C98.1152 4.41622 97.2752 6.45623 97.2752 8.85623C97.2752 11.2562 98.1152 13.2962 99.7952 15.0002C101.475 16.6802 103.515 17.5202 105.939 17.5202C108.363 17.5202 110.403 16.6802 112.083 15.0002ZM100.683 14.1362C99.2672 12.6722 98.5472 10.9202 98.5472 8.85623C98.5472 6.79223 99.2672 5.04023 100.683 3.60023C102.123 2.13622 103.875 1.41622 105.939 1.41622C108.003 1.41622 109.755 2.13622 111.171 3.60023C112.611 5.04023 113.331 6.79223 113.331 8.85623C113.331 10.9202 112.611 12.6722 111.171 14.1362C109.755 15.5762 108.003 16.2962 105.939 16.2962C103.875 16.2962 102.123 15.5762 100.683 14.1362ZM129.661 8.54423C130.981 7.84823 131.821 6.48022 131.821 4.87222C131.821 3.64822 131.389 2.61623 130.525 1.75222C129.661 0.888225 128.629 0.456224 127.405 0.456224H120.709V17.2562H127.957C129.229 17.2562 130.309 16.8002 131.197 15.9122C132.085 15.0242 132.541 13.9442 132.541 12.6722C132.541 10.7762 131.389 9.21623 129.661 8.54423ZM127.405 1.65622C128.269 1.65622 129.013 1.96823 129.613 2.61623C130.237 3.24022 130.549 3.98422 130.549 4.87222C130.549 5.76022 130.237 6.50423 129.613 7.15222C129.013 7.77623 128.269 8.08822 127.405 8.08822H121.981V1.65622H127.405ZM121.981 16.0562V9.28823H127.957C128.869 9.28823 129.637 9.62423 130.285 10.2962C130.933 10.9442 131.269 11.7362 131.269 12.6722C131.269 13.6082 130.933 14.4002 130.285 15.0722C129.637 15.7202 128.869 16.0562 127.957 16.0562H121.981ZM139.814 9.38423H147.494V8.18423H139.814V1.65622H148.094V0.456224H138.542V17.2562H148.214V16.0562H139.814V9.38423ZM166.291 17.2562L162.115 10.2002C163.195 9.91223 164.059 9.33623 164.755 8.44823C165.451 7.56023 165.811 6.55223 165.811 5.42422C165.811 4.05623 165.331 2.90422 164.347 1.92022C163.363 0.936225 162.211 0.456224 160.843 0.456224H154.219V17.2562H155.491V10.3682H160.795L164.827 17.2562H166.291ZM160.843 1.65622C161.875 1.65622 162.739 2.01622 163.459 2.76022C164.179 3.50423 164.539 4.39223 164.539 5.42422C164.539 6.45623 164.179 7.34423 163.459 8.08822C162.739 8.80822 161.875 9.16823 160.843 9.16823H155.491V1.65622H160.843ZM190.6 17.2562V16.0322H181.864L187.072 10.6802C189.064 8.66423 190.216 6.93623 190.216 5.01622C190.216 3.52822 189.712 2.35222 188.728 1.48823C187.744 0.624225 186.592 0.192225 185.224 0.192225C182.992 0.192225 181.12 1.29623 180.136 3.31222L181.216 3.96023C182.008 2.25623 183.352 1.41622 185.224 1.41622C187.336 1.41622 188.92 2.78422 188.92 5.01622C188.92 6.31222 188.008 7.89623 186.208 9.76823L180.04 16.1042V17.2562H190.6ZM206.502 15.1682C207.606 13.6082 208.158 11.4962 208.158 8.85623C208.158 6.21623 207.606 4.10422 206.502 2.54422C205.398 0.984225 203.862 0.192225 201.87 0.192225C199.878 0.192225 198.342 0.984225 197.238 2.54422C196.134 4.10422 195.582 6.21623 195.582 8.85623C195.582 11.4962 196.134 13.6082 197.238 15.1682C198.342 16.7282 199.878 17.5202 201.87 17.5202C203.862 17.5202 205.398 16.7282 206.502 15.1682ZM198.198 14.3522C197.31 13.0322 196.878 11.2082 196.878 8.85623C196.878 6.50423 197.31 4.68022 198.198 3.38423C199.086 2.06423 200.31 1.41622 201.87 1.41622C203.43 1.41622 204.654 2.06423 205.542 3.38423C206.43 4.68022 206.862 6.50423 206.862 8.85623C206.862 11.2082 206.43 13.0322 205.542 14.3522C204.654 15.6482 203.43 16.2962 201.87 16.2962C200.31 16.2962 199.086 15.6482 198.198 14.3522ZM223.665 17.2562V16.0322H214.929L220.137 10.6802C222.129 8.66423 223.281 6.93623 223.281 5.01622C223.281 3.52822 222.777 2.35222 221.793 1.48823C220.809 0.624225 219.657 0.192225 218.289 0.192225C216.057 0.192225 214.185 1.29623 213.201 3.31222L214.281 3.96023C215.073 2.25623 216.417 1.41622 218.289 1.41622C220.401 1.41622 221.985 2.78422 221.985 5.01622C221.985 6.31222 221.073 7.89623 219.273 9.76823L213.105 16.1042V17.2562H223.665ZM228.017 1.96823L228.329 3.07223L232.217 1.84823V17.2562H233.489V0.456224H232.409L228.017 1.96823Z" fill="black"/>
</svg>
