<svg width="224" height="24" viewBox="0 0 224 24" fill="none" xmlns="http://www.w3.org/2000/svg">
<circle cx="202" cy="2" r="2" fill="black"/>
<circle cx="202" cy="22" r="2" fill="black"/>
<circle cx="222" cy="2" r="2" fill="black"/>
<circle cx="222" cy="22" r="2" fill="black"/>
<circle cx="182" cy="2" r="2" transform="rotate(90 182 2)" fill="black"/>
<circle cx="102" cy="2" r="2" transform="rotate(90 102 2)" fill="black"/>
<circle cx="22" cy="2" r="2" transform="rotate(90 22 2)" fill="black"/>
<circle cx="142" cy="2" r="2" transform="rotate(90 142 2)" fill="black"/>
<circle cx="62" cy="2" r="2" transform="rotate(90 62 2)" fill="black"/>
<circle cx="162" cy="2" r="2" transform="rotate(90 162 2)" fill="black"/>
<circle cx="82" cy="2" r="2" transform="rotate(90 82 2)" fill="black"/>
<circle cx="2" cy="2" r="2" transform="rotate(90 2 2)" fill="black"/>
<circle cx="122" cy="2" r="2" transform="rotate(90 122 2)" fill="black"/>
<circle cx="42" cy="2" r="2" transform="rotate(90 42 2)" fill="black"/>
<circle cx="182" cy="22" r="2" transform="rotate(90 182 22)" fill="black"/>
<circle cx="102" cy="22" r="2" transform="rotate(90 102 22)" fill="black"/>
<circle cx="22" cy="22" r="2" transform="rotate(90 22 22)" fill="black"/>
<circle cx="142" cy="22" r="2" transform="rotate(90 142 22)" fill="black"/>
<circle cx="62" cy="22" r="2" transform="rotate(90 62 22)" fill="black"/>
<circle cx="162" cy="22" r="2" transform="rotate(90 162 22)" fill="black"/>
<circle cx="82" cy="22" r="2" transform="rotate(90 82 22)" fill="black"/>
<circle cx="2" cy="22" r="2" transform="rotate(90 2 22)" fill="black"/>
<circle cx="122" cy="22" r="2" transform="rotate(90 122 22)" fill="black"/>
<circle cx="42" cy="22" r="2" transform="rotate(90 42 22)" fill="black"/>
</svg>
