<svg width="100" height="50" viewBox="0 0 100 50" fill="none" xmlns="http://www.w3.org/2000/svg">
<path d="M-4.37114e-06 50C-4.94516e-06 43.4339 1.29328 36.9321 3.80602 30.8658C6.31875 24.7996 10.0017 19.2876 14.6447 14.6447C19.2876 10.0017 24.7995 6.31876 30.8658 3.80603C36.9321 1.29329 43.4339 4.94516e-06 50 4.37114e-06C56.5661 3.79711e-06 63.0679 1.29329 69.1342 3.80603C75.2004 6.31877 80.7124 10.0017 85.3553 14.6447C89.9983 19.2876 93.6812 24.7996 96.194 30.8658C98.7067 36.9321 100 43.4339 100 50L50 50L-4.37114e-06 50Z" fill="#8D99AE"/>
</svg>
