<svg width="48" height="48" viewBox="0 0 48 48" fill="none" xmlns="http://www.w3.org/2000/svg">
<g clip-path="url(#clip0)">
<path fill-rule="evenodd" clip-rule="evenodd" d="M42.1356 0C45.3723 0 48 2.62781 48 5.86444V42.1356C48 45.3722 45.3722 48 42.1356 48H32.1542V29.9142H38.3979L39.5859 22.1685H32.1542V17.1419C32.1542 15.0229 33.1923 12.9573 36.5211 12.9573H39.9V6.36291C39.9 6.36291 36.8334 5.83959 33.9017 5.83959C27.7809 5.83959 23.7804 9.54919 23.7804 16.265V22.1685H16.9767V29.9142H23.7804V48H5.86444C2.62781 48 0 45.3722 0 42.1356V5.86444C0 2.62781 2.62772 0 5.86444 0L42.1356 0Z" fill="white"/>
</g>
<defs>
<clipPath id="clip0">
<rect width="48" height="48" fill="white"/>
</clipPath>
</defs>
</svg>
