<svg width="258" height="169" viewBox="0 0 258 169" fill="none" xmlns="http://www.w3.org/2000/svg">
<path d="M97.904 137L97.0913 136.417L95.9567 138H97.904V137ZM125.984 97.832L126.797 98.4146L127.218 97.8264L126.791 97.2421L125.984 97.832ZM100.208 62.552V61.552H98.2389L99.4006 63.1419L100.208 62.552ZM120.08 62.552L120.907 61.9901L120.61 61.552H120.08V62.552ZM135.632 85.448L134.805 86.0099L135.613 87.2004L136.447 86.0273L135.632 85.448ZM151.904 62.552V61.552H151.388L151.089 61.9727L151.904 62.552ZM170.912 62.552L171.717 63.145L172.89 61.552H170.912V62.552ZM145.568 96.968L144.763 96.375L144.333 96.9582L144.753 97.5481L145.568 96.968ZM174.08 137V138H176.02L174.895 136.42L174.08 137ZM154.352 137L153.527 137.566L153.825 138H154.352V137ZM135.488 109.496L136.313 108.93L135.475 107.709L134.655 108.942L135.488 109.496ZM117.2 137V138H117.736L118.033 137.554L117.2 137ZM98.7167 137.583L126.797 98.4146L125.171 97.2493L97.0913 136.417L98.7167 137.583ZM126.791 97.2421L101.015 61.9621L99.4006 63.1419L125.177 98.4219L126.791 97.2421ZM100.208 63.552H120.08V61.552H100.208V63.552ZM119.253 63.1139L134.805 86.0099L136.459 84.8861L120.907 61.9901L119.253 63.1139ZM136.447 86.0273L152.719 63.1313L151.089 61.9727L134.817 84.8687L136.447 86.0273ZM151.904 63.552H170.912V61.552H151.904V63.552ZM170.107 61.959L144.763 96.375L146.373 97.561L171.717 63.145L170.107 61.959ZM144.753 97.5481L173.265 137.58L174.895 136.42L146.383 96.3879L144.753 97.5481ZM174.08 136H154.352V138H174.08V136ZM155.177 136.434L136.313 108.93L134.663 110.062L153.527 137.566L155.177 136.434ZM134.655 108.942L116.367 136.446L118.033 137.554L136.321 110.05L134.655 108.942ZM117.2 136H97.904V138H117.2V136Z" fill="#E62B1E"/>
<path d="M180.904 137L208.984 97.832L183.208 62.552H203.08L218.632 85.448L234.904 62.552H253.912L228.568 96.968L257.08 137H237.352L218.488 109.496L200.2 137H180.904Z" fill="#E62B1E"/>
<rect x="126.572" y="85.9917" width="12.7163" height="12.7163" transform="rotate(-45 126.572 85.9917)" fill="#E62B1E"/>
<rect x="126.48" y="109.008" width="12.7163" height="12.7163" transform="rotate(-45 126.48 109.008)" fill="#E62B1E"/>
<rect x="115" y="97.4363" width="12.7163" height="12.7163" transform="rotate(-45 115 97.4363)" fill="#E62B1E"/>
<rect x="138.016" y="97.5635" width="12.7163" height="12.7163" transform="rotate(-45 138.016 97.5635)" fill="#E62B1E"/>
<circle cx="69.9999" cy="129" r="8" fill="#E62B1E"/>
<circle cx="34.9999" cy="129" r="7.5" stroke="#E62B1E"/>
<path d="M-6.99382e-07 137C2.12173 137 4.15656 136.157 5.65685 134.657C7.15714 133.157 8 131.122 8 129C8 126.878 7.15715 124.843 5.65685 123.343C4.15656 121.843 2.12173 121 1.43051e-06 121" stroke="#E62B1E"/>
</svg>
