<svg width="1032" height="136" viewBox="0 0 1032 136" fill="none" xmlns="http://www.w3.org/2000/svg">
<rect x="486" width="546" height="117" fill="#E62B1E"/>
<path d="M427.75 79.48L429.401 80.6089L430.174 79.4781L429.399 78.3486L427.75 79.48ZM405.094 46.456V44.456H401.296L403.445 47.5874L405.094 46.456ZM419.398 46.456L421.08 45.3745L420.49 44.456H419.398V46.456ZM434.95 70.648L433.268 71.7295L434.915 74.2915L436.611 71.762L434.95 70.648ZM451.174 46.456V44.456H450.107L449.513 45.342L451.174 46.456ZM464.614 46.456L466.263 47.5874L468.412 44.456H464.614V46.456ZM441.958 79.48L440.309 78.3486L439.534 79.4781L440.307 80.6089L441.958 79.48ZM466.246 115V117H470.036L467.897 113.871L466.246 115ZM451.654 115L449.979 116.092L450.57 117H451.654V115ZM434.566 88.792L436.241 87.6997L434.58 85.1516L432.899 87.6868L434.566 88.792ZM417.19 115V117H418.264L418.857 116.105L417.19 115ZM403.462 115L401.811 113.871L399.672 117H403.462V115ZM429.399 78.3486L406.743 45.3246L403.445 47.5874L426.101 80.6114L429.399 78.3486ZM405.094 48.456H419.398V44.456H405.094V48.456ZM417.716 47.5375L433.268 71.7295L436.632 69.5665L421.08 45.3745L417.716 47.5375ZM436.611 71.762L452.835 47.57L449.513 45.342L433.289 69.534L436.611 71.762ZM451.174 48.456H464.614V44.456H451.174V48.456ZM462.965 45.3246L440.309 78.3486L443.607 80.6114L466.263 47.5874L462.965 45.3246ZM440.307 80.6089L464.595 116.129L467.897 113.871L443.609 78.3511L440.307 80.6089ZM466.246 113H451.654V117H466.246V113ZM453.329 113.908L436.241 87.6997L432.891 89.8843L449.979 116.092L453.329 113.908ZM432.899 87.6868L415.523 113.895L418.857 116.105L436.233 89.8972L432.899 87.6868ZM417.19 113H403.462V117H417.19V113ZM405.113 116.129L429.401 80.6089L426.099 78.3511L401.811 113.871L405.113 116.129Z" fill="#E62B1E"/>
<rect x="184.376" y="75.1876" width="10.1648" height="10.1648" transform="rotate(-45 184.376 75.1876)" fill="#E62B1E"/>
<rect x="200.731" y="77.6093" width="10.1648" height="10.1648" transform="rotate(45 200.731 77.6093)" fill="#E62B1E"/>
<rect x="184.272" y="94.0687" width="10.1648" height="10.1648" transform="rotate(-45 184.272 94.0687)" fill="#E62B1E"/>
<rect x="182.188" y="77.6093" width="10.1648" height="10.1648" transform="rotate(45 182.188 77.6093)" fill="#E62B1E"/>
<line x1="208" y1="114" y2="114" stroke="#E62B1E" stroke-width="2"/>
<rect x="231.5" y="109.5" width="75" height="7" stroke="#E62B1E"/>
<rect x="231" y="94" width="76" height="8" fill="#E62B1E"/>
<rect x="307" y="87" width="76" height="8" fill="#E62B1E"/>
<rect x="307" y="101" width="76" height="8" fill="#E62B1E"/>
</svg>
