<svg width="434" height="80" viewBox="0 0 434 80" fill="none" xmlns="http://www.w3.org/2000/svg">
<rect y="36" width="434" height="44" fill="#E62B1E"/>
<path d="M7.84 9.8H4.872V49H26.32V46.2H7.84V9.8ZM46.4673 20.384C42.2113 20.384 38.7393 21.784 35.9953 24.584C33.3073 27.328 31.9633 30.8 31.9633 35C31.9633 39.256 33.3633 42.784 36.1073 45.528C38.8513 48.272 42.3793 49.616 46.6913 49.616C52.1233 49.616 56.6033 47.152 58.8993 43.288L56.4353 41.832C54.6993 44.912 51.2273 46.928 46.7473 46.928C43.5553 46.928 40.8113 45.976 38.6273 44.072C36.4433 42.112 35.2113 39.592 34.8753 36.456H60.2433C60.2433 36.176 60.2993 35.392 60.2993 35.112C60.2993 31.136 59.0113 27.664 56.4353 24.752C53.9153 21.84 50.5553 20.384 46.4673 20.384ZM46.4673 23.072C49.3233 23.072 51.7313 24.024 53.8033 25.928C55.8753 27.776 57.1073 30.408 57.3873 33.712H34.8753C35.1553 30.576 36.3873 28 38.5153 26.04C40.6433 24.08 43.2753 23.072 46.4673 23.072ZM83.7196 21H75.3756V13.16L72.5196 14V21H66.3596V23.744H72.5196V41.944C72.5196 48.16 76.1596 50.12 83.7196 49V46.48C78.0076 47.04 75.3756 46.816 75.3756 41.944V23.744H83.7196V21ZM95.6331 9.8L93.5051 21.448H96.0811L99.1051 9.8H95.6331ZM107.594 28.336C107.594 25.144 110.506 23.072 114.314 23.072C117.506 23.072 120.362 24.584 121.482 27.328L123.834 25.984C122.266 22.568 118.794 20.384 114.314 20.384C111.514 20.384 109.218 21.168 107.426 22.68C105.69 24.192 104.794 26.096 104.794 28.336C104.794 34.216 110.898 35.392 115.77 36.568C119.13 37.296 121.762 38.92 121.762 41.664C121.762 45.024 118.738 46.928 114.538 46.928C110.338 46.928 107.37 45.08 106.306 42L103.898 43.4C105.298 47.152 109.162 49.616 114.538 49.616C120.53 49.616 124.562 46.312 124.562 41.664C124.562 35.672 118.458 34.44 113.586 33.376C110.226 32.536 107.594 31.08 107.594 28.336ZM171.692 49.616C178.916 49.616 185.412 45.864 188.604 40.04L185.972 38.528C183.34 43.512 177.796 46.76 171.692 46.76C166.596 46.76 162.452 45.08 159.148 41.776C155.9 38.416 154.276 34.272 154.276 29.4C154.276 24.528 155.9 20.384 159.148 17.08C162.452 13.72 166.596 12.04 171.692 12.04C174.772 12.04 177.572 12.768 180.092 14.28C182.612 15.736 184.572 17.696 185.86 20.104L188.492 18.592C186.868 15.736 184.516 13.44 181.548 11.76C178.58 10.024 175.276 9.184 171.692 9.184C165.812 9.184 160.94 11.144 157.076 15.064C153.212 18.928 151.308 23.744 151.308 29.4C151.308 35.056 153.212 39.872 157.076 43.792C160.94 47.656 165.812 49.616 171.692 49.616ZM210.953 49.616C215.041 49.616 218.457 48.216 221.313 45.416C224.169 42.56 225.625 39.088 225.625 35C225.625 30.912 224.169 27.44 221.313 24.64C218.457 21.784 215.041 20.384 210.953 20.384C206.865 20.384 203.337 21.784 200.481 24.64C197.625 27.44 196.225 30.912 196.225 35C196.225 39.088 197.625 42.56 200.481 45.416C203.337 48.216 206.865 49.616 210.953 49.616ZM202.497 43.456C200.201 41.16 199.081 38.304 199.081 35C199.081 31.696 200.201 28.84 202.497 26.544C204.793 24.248 207.649 23.072 210.953 23.072C214.257 23.072 217.057 24.248 219.353 26.544C221.649 28.84 222.769 31.696 222.769 35C222.769 38.304 221.649 41.16 219.353 43.456C217.057 45.752 214.257 46.928 210.953 46.928C207.649 46.928 204.793 45.752 202.497 43.456ZM248.547 20.384C243.899 20.384 240.539 22.344 238.523 26.32V21H235.723V49H238.523V34.216C238.523 26.992 242.555 23.072 248.323 23.072C253.531 23.072 256.555 26.376 256.555 31.584V49H259.411V31.584C259.411 24.808 255.211 20.384 248.547 20.384ZM283.517 20.384C278.869 20.384 275.509 22.344 273.493 26.32V21H270.693V49H273.493V34.216C273.493 26.992 277.525 23.072 283.293 23.072C288.501 23.072 291.525 26.376 291.525 31.584V49H294.381V31.584C294.381 24.808 290.181 20.384 283.517 20.384ZM318.262 20.384C314.006 20.384 310.534 21.784 307.79 24.584C305.102 27.328 303.758 30.8 303.758 35C303.758 39.256 305.158 42.784 307.902 45.528C310.646 48.272 314.174 49.616 318.486 49.616C323.918 49.616 328.398 47.152 330.694 43.288L328.23 41.832C326.494 44.912 323.022 46.928 318.542 46.928C315.35 46.928 312.606 45.976 310.422 44.072C308.238 42.112 307.006 39.592 306.67 36.456H332.038C332.038 36.176 332.094 35.392 332.094 35.112C332.094 31.136 330.806 27.664 328.23 24.752C325.71 21.84 322.35 20.384 318.262 20.384ZM318.262 23.072C321.118 23.072 323.526 24.024 325.598 25.928C327.67 27.776 328.902 30.408 329.182 33.712H306.67C306.95 30.576 308.182 28 310.31 26.04C312.438 24.08 315.07 23.072 318.262 23.072ZM354.823 49.616C360.255 49.616 365.015 46.816 367.255 42.504L364.903 41.104C363.055 44.688 359.303 46.928 354.823 46.928C351.463 46.928 348.663 45.808 346.367 43.512C344.071 41.216 342.951 38.36 342.951 35C342.951 31.64 344.071 28.84 346.367 26.544C348.663 24.248 351.463 23.072 354.823 23.072C359.303 23.072 363.111 25.312 364.735 28.896L367.031 27.552C365.015 23.128 360.255 20.384 354.823 20.384C350.623 20.384 347.095 21.784 344.295 24.584C341.495 27.384 340.095 30.856 340.095 35C340.095 39.144 341.495 42.616 344.295 45.416C347.095 48.216 350.623 49.616 354.823 49.616ZM391.085 21H382.741V13.16L379.885 14V21H373.725V23.744H379.885V41.944C379.885 48.16 383.525 50.12 391.085 49V46.48C385.373 47.04 382.741 46.816 382.741 41.944V23.744H391.085V21Z" fill="white"/>
</svg>
