<svg width="488" height="35" viewBox="0 0 488 35" fill="none" xmlns="http://www.w3.org/2000/svg">
<path d="M17.36 25L9.828 5.4H7.812L0.28 25H2.352L4.172 20.184H13.468L15.288 25H17.36ZM8.82 7.836L12.768 18.336H4.872L8.82 7.836ZM21.2898 18.336C21.2898 20.464 21.9618 22.172 23.3058 23.432C24.6498 24.692 26.4138 25.336 28.5698 25.336C30.7258 25.336 32.4898 24.692 33.8338 23.432C35.1778 22.172 35.8498 20.464 35.8498 18.336V5.4H33.8898V18.336C33.8898 21.472 31.9298 23.432 28.5698 23.432C25.2098 23.432 23.2498 21.472 23.2498 18.336V5.4H21.2898V18.336ZM56.5742 25L51.7862 16.908C53.0182 16.544 54.0262 15.872 54.8102 14.836C55.6222 13.8 56.0142 12.596 56.0142 11.28C56.0142 9.656 55.4262 8.284 54.2782 7.136C53.1302 5.988 51.7582 5.4 50.1342 5.4H42.2942V25H44.2542V17.16H49.7422L54.3342 25H56.5742ZM50.1342 7.248C51.2262 7.248 52.1502 7.64 52.9062 8.424C53.6622 9.208 54.0542 10.16 54.0542 11.28C54.0542 12.372 53.6622 13.324 52.9062 14.136C52.1502 14.92 51.2262 15.312 50.1342 15.312H44.2542V7.248H50.1342ZM76.7441 25L69.2121 5.4H67.1961L59.6641 25H61.7361L63.5561 20.184H72.8521L74.6721 25H76.7441ZM68.2041 7.836L72.1521 18.336H64.2561L68.2041 7.836ZM94.1008 21.36L83.1808 5.4H81.5008V25H83.4608V9.04L94.3808 25H96.0608V5.4H94.1008V21.36ZM111.704 15.676V17.524H119.488C119.292 19.232 118.536 20.66 117.22 21.78C115.904 22.872 114.14 23.432 111.928 23.432C109.492 23.432 107.476 22.648 105.936 21.052C104.396 19.456 103.612 17.524 103.612 15.2C103.612 12.876 104.396 10.944 105.936 9.348C107.476 7.752 109.492 6.968 111.928 6.968C114.84 6.968 117.444 8.508 118.676 10.888L120.412 9.88C119.6 8.424 118.424 7.248 116.912 6.38C115.4 5.512 113.748 5.064 111.928 5.064C108.96 5.064 106.496 6.044 104.564 8.004C102.632 9.964 101.652 12.372 101.652 15.2C101.652 18.028 102.632 20.436 104.564 22.396C106.496 24.356 108.96 25.336 111.928 25.336C114.84 25.336 117.164 24.496 118.9 22.844C120.636 21.164 121.504 19.12 121.504 16.684V15.676H111.704ZM141.515 25L133.983 5.4H131.967L124.435 25H126.507L128.327 20.184H137.623L139.443 25H141.515ZM132.975 7.836L136.923 18.336H129.027L132.975 7.836ZM157.136 14.836C158.676 13.884 159.432 12.484 159.432 10.664C159.432 9.236 158.928 8.004 157.892 6.968C156.856 5.932 155.624 5.4 154.168 5.4H146.272V25H154.812C156.324 25 157.612 24.468 158.676 23.404C159.74 22.34 160.272 21.052 160.272 19.54C160.272 17.412 159.04 15.648 157.136 14.836ZM154.168 7.248C155.092 7.248 155.848 7.584 156.492 8.256C157.136 8.928 157.472 9.74 157.472 10.664C157.472 11.616 157.136 12.428 156.492 13.1C155.848 13.744 155.092 14.08 154.168 14.08H148.232V7.248H154.168ZM148.232 23.152V15.928H154.812C155.792 15.928 156.604 16.292 157.276 16.992C157.976 17.692 158.312 18.56 158.312 19.54C158.312 20.548 157.976 21.416 157.276 22.116C156.604 22.816 155.792 23.152 154.812 23.152H148.232ZM180.995 25L173.463 5.4H171.447L163.915 25H165.987L167.807 20.184H177.103L178.923 25H180.995ZM172.455 7.836L176.403 18.336H168.507L172.455 7.836ZM185.752 5.4V25H193.312C195.972 25 198.184 24.048 199.92 22.172C201.684 20.268 202.552 17.944 202.552 15.2C202.552 12.456 201.684 10.132 199.92 8.256C198.184 6.352 195.972 5.4 193.312 5.4H185.752ZM187.712 23.152V7.248H193.312C195.468 7.248 197.204 8.004 198.576 9.544C199.948 11.084 200.648 12.96 200.648 15.2C200.648 17.44 199.948 19.316 198.576 20.856C197.204 22.396 195.468 23.152 193.312 23.152H187.712Z" fill="black"/>
<rect x="230.791" y="8.18762" width="8.1648" height="8.1648" transform="rotate(-45 230.791 8.18762)" stroke="black" stroke-width="2"/>
<rect x="245.731" y="12.0235" width="8.1648" height="8.1648" transform="rotate(45 245.731 12.0235)" stroke="black" stroke-width="2"/>
<rect x="230.686" y="27.0687" width="8.1648" height="8.1648" transform="rotate(-45 230.686 27.0687)" stroke="black" stroke-width="2"/>
<rect x="227.188" y="12.0235" width="8.1648" height="8.1648" transform="rotate(45 227.188 12.0235)" stroke="black" stroke-width="2"/>
<path d="M286.643 5.4L280.119 16.32L273.595 5.4H271.159V25H273.119V8.368L279.979 19.848H280.259L287.119 8.368V25H289.079V5.4H286.643ZM310.913 25L303.381 5.4H301.365L293.833 25H295.905L297.725 20.184H307.021L308.841 25H310.913ZM302.373 7.836L306.321 18.336H298.425L302.373 7.836ZM328.27 13.996H317.63V5.4H315.67V25H317.63V15.844H328.27V25H330.23V5.4H328.27V13.996ZM352.061 25L344.529 5.4H342.513L334.981 25H337.053L338.873 20.184H348.169L349.989 25H352.061ZM343.521 7.836L347.469 18.336H339.573L343.521 7.836ZM371.098 25L366.31 16.908C367.542 16.544 368.55 15.872 369.334 14.836C370.146 13.8 370.538 12.596 370.538 11.28C370.538 9.656 369.95 8.284 368.802 7.136C367.654 5.988 366.282 5.4 364.658 5.4H356.818V25H358.778V17.16H364.266L368.858 25H371.098ZM364.658 7.248C365.75 7.248 366.674 7.64 367.43 8.424C368.186 9.208 368.578 10.16 368.578 11.28C368.578 12.372 368.186 13.324 367.43 14.136C366.674 14.92 365.75 15.312 364.658 15.312H358.778V7.248H364.658ZM391.268 25L383.736 5.4H381.72L374.188 25H376.26L378.08 20.184H387.376L389.196 25H391.268ZM382.728 7.836L386.676 18.336H378.78L382.728 7.836ZM401.638 25.336C403.626 25.336 405.222 24.832 406.426 23.852C407.63 22.844 408.246 21.5 408.246 19.848C408.246 18.84 407.91 17.916 407.546 17.328C407.21 16.684 406.23 16.012 405.67 15.676C405.39 15.48 404.942 15.284 404.354 15.06C403.766 14.808 403.318 14.64 403.01 14.556L401.498 14.024C399.958 13.52 398.838 13.016 398.166 12.54C397.494 12.064 397.158 11.336 397.158 10.356C397.158 8.228 398.782 6.968 401.218 6.968C403.542 6.968 405.138 8.06 406.034 10.216L407.686 9.292C406.594 6.828 404.27 5.064 401.218 5.064C399.51 5.064 398.082 5.54 396.934 6.52C395.786 7.472 395.198 8.788 395.198 10.44C395.198 12.148 395.954 13.436 397.438 14.332C398.082 14.752 399.426 15.284 401.47 15.956C403.178 16.516 404.41 17.048 405.166 17.58C405.922 18.112 406.286 18.868 406.286 19.904C406.286 22.032 404.578 23.432 401.666 23.432C398.67 23.432 396.738 22.004 396.038 19.568L394.358 20.548C395.366 23.544 398.054 25.336 401.638 25.336ZM426.314 13.996H415.674V5.4H413.714V25H415.674V15.844H426.314V25H428.274V5.4H426.314V13.996ZM433.305 5.4V7.248H439.325V25H441.285V7.248H447.305V5.4H433.305ZM466.626 25L461.838 16.908C463.07 16.544 464.078 15.872 464.862 14.836C465.674 13.8 466.066 12.596 466.066 11.28C466.066 9.656 465.478 8.284 464.33 7.136C463.182 5.988 461.81 5.4 460.186 5.4H452.346V25H454.306V17.16H459.794L464.386 25H466.626ZM460.186 7.248C461.278 7.248 462.202 7.64 462.958 8.424C463.714 9.208 464.106 10.16 464.106 11.28C464.106 12.372 463.714 13.324 462.958 14.136C462.202 14.92 461.278 15.312 460.186 15.312H454.306V7.248H460.186ZM486.796 25L479.264 5.4H477.248L469.716 25H471.788L473.608 20.184H482.904L484.724 25H486.796ZM478.256 7.836L482.204 18.336H474.308L478.256 7.836Z" fill="black"/>
</svg>
