<svg width="416" height="157" viewBox="0 0 416 157" fill="none" xmlns="http://www.w3.org/2000/svg">
<path d="M35.2381 34.904C39.2141 30.928 41.1741 26.112 41.1741 20.4C41.1741 14.688 39.2141 9.872 35.2381 5.952C31.2621 1.976 26.4461 0.0159974 20.7901 0.0159974C15.1341 0.0159974 10.3181 1.976 6.34208 5.952C2.42207 9.872 0.462075 14.688 0.462075 20.4C0.462075 26.112 2.42207 30.928 6.34208 34.904C10.3181 38.824 15.1341 40.784 20.7901 40.784C26.4461 40.784 31.2621 38.824 35.2381 34.904ZM11.7741 29.64C9.36607 27.232 8.13407 24.152 8.13407 20.4C8.13407 16.648 9.36607 13.568 11.7741 11.16C14.1821 8.752 17.2061 7.52 20.7901 7.52C24.3741 7.52 27.3981 8.752 29.8061 11.16C32.2141 13.568 33.4461 16.648 33.4461 20.4C33.4461 24.152 32.2141 27.232 29.8061 29.64C27.3981 32.048 24.3741 33.224 20.7901 33.224C17.2061 33.224 14.1821 32.048 11.7741 29.64ZM51.0856 0.799997V40H58.8136V27.12H65.7016C69.4536 27.12 72.6456 25.832 75.2216 23.312C77.7976 20.792 79.0856 17.656 79.0856 13.96C79.0856 10.264 77.7976 7.128 75.2216 4.608C72.6456 2.088 69.4536 0.799997 65.7016 0.799997H51.0856ZM58.8136 19.896V8.024H65.7016C69.0056 8.024 71.4136 10.544 71.4136 13.96C71.4136 17.32 69.0056 19.896 65.7016 19.896H58.8136ZM88.5969 0.799997V40H96.3249V27.12H103.213C106.965 27.12 110.157 25.832 112.733 23.312C115.309 20.792 116.597 17.656 116.597 13.96C116.597 10.264 115.309 7.128 112.733 4.608C110.157 2.088 106.965 0.799997 103.213 0.799997H88.5969ZM96.3249 19.896V8.024H103.213C106.517 8.024 108.925 10.544 108.925 13.96C108.925 17.32 106.517 19.896 103.213 19.896H96.3249ZM158.819 34.904C162.795 30.928 164.755 26.112 164.755 20.4C164.755 14.688 162.795 9.872 158.819 5.952C154.843 1.976 150.027 0.0159974 144.371 0.0159974C138.715 0.0159974 133.899 1.976 129.923 5.952C126.003 9.872 124.043 14.688 124.043 20.4C124.043 26.112 126.003 30.928 129.923 34.904C133.899 38.824 138.715 40.784 144.371 40.784C150.027 40.784 154.843 38.824 158.819 34.904ZM135.355 29.64C132.947 27.232 131.715 24.152 131.715 20.4C131.715 16.648 132.947 13.568 135.355 11.16C137.763 8.752 140.787 7.52 144.371 7.52C147.955 7.52 150.979 8.752 153.387 11.16C155.795 13.568 157.027 16.648 157.027 20.4C157.027 24.152 155.795 27.232 153.387 29.64C150.979 32.048 147.955 33.224 144.371 33.224C140.787 33.224 137.763 32.048 135.355 29.64ZM204.514 40L195.834 25.216C200.37 23.144 203.394 18.664 203.394 13.792C203.394 10.208 202.106 7.128 199.586 4.608C197.066 2.088 193.986 0.799997 190.346 0.799997H174.666V40H182.394V26.392H188.274L196.17 40H204.514ZM190.346 8.024C193.258 8.024 195.666 10.6 195.666 13.792C195.666 16.984 193.258 19.616 190.346 19.616H182.394V8.024H190.346ZM209.812 0.799997V8.192H220.34V40H228.068V8.192H238.652V0.799997H209.812ZM262.063 40.784C266.487 40.784 270.071 39.552 272.871 37.088C275.671 34.624 277.071 31.32 277.071 27.176V0.799997H269.343V26.56C269.343 30.648 267.047 33.224 262.063 33.224C257.079 33.224 254.783 30.648 254.783 26.56V0.799997H247.111V27.176C247.111 31.32 248.511 34.624 251.311 37.088C254.111 39.552 257.695 40.784 262.063 40.784ZM311.192 24.712L294.392 0.799997H288.512V40H296.24V16.032L313.04 40H318.92V0.799997H311.192V24.712ZM330.672 40H338.4V0.799997H330.672V40ZM347.225 0.799997V8.192H357.753V40H365.481V8.192H376.065V0.799997H347.225ZM407.147 0.799997L398.635 17.152L390.123 0.799997H381.387L394.771 24.712V40H402.443V24.712L415.883 0.799997H407.147Z" fill="#E62B1E"/>
<path d="M373.468 98H376.012V64.4H373.468V98ZM409.303 93.296L389.431 64.4H387.223V98H389.767V69.104L409.591 98H411.847V64.4H409.303V93.296ZM183.088 156L170.08 122.4H167.392L154.336 156H157.024L160.288 147.456H177.136L180.4 156H183.088ZM168.736 125.52L176.224 145.056H161.248L168.736 125.52ZM190.86 122.4V156H203.484C208.044 156 211.836 154.368 214.812 151.152C217.836 147.888 219.324 143.904 219.324 139.2C219.324 134.496 217.836 130.512 214.812 127.296C211.836 124.032 208.044 122.4 203.484 122.4H190.86ZM193.404 153.6V124.8H203.484C207.372 124.8 210.588 126.192 213.084 128.976C215.58 131.712 216.828 135.12 216.828 139.2C216.828 143.28 215.58 146.688 213.084 149.472C210.588 152.208 207.372 153.6 203.484 153.6H193.404ZM238.826 156L251.354 122.4H248.618L237.482 152.688L226.394 122.4H223.61L236.138 156H238.826ZM261.648 140.256H277.008V137.856H261.648V124.8H278.208V122.4H259.104V156H278.448V153.6H261.648V140.256ZM311.722 156L303.37 141.888C305.53 141.312 307.258 140.16 308.65 138.384C310.042 136.608 310.762 134.592 310.762 132.336C310.762 129.6 309.802 127.296 307.834 125.328C305.866 123.36 303.562 122.4 300.826 122.4H287.578V156H290.122V142.224H300.73L308.794 156H311.722ZM300.826 124.8C302.89 124.8 304.618 125.52 306.058 127.008C307.498 128.496 308.218 130.272 308.218 132.336C308.218 134.4 307.498 136.176 306.058 137.664C304.618 139.104 302.89 139.824 300.826 139.824H290.122V124.8H300.826ZM329.699 156.528C333.011 156.528 335.699 155.712 337.715 154.032C339.731 152.352 340.739 150.096 340.739 147.312C340.739 144.576 339.731 142.512 337.283 141.024C336.083 140.256 334.979 139.68 333.923 139.248C332.915 138.816 331.475 138.288 329.603 137.664C326.675 136.704 324.611 135.792 323.315 134.88C322.019 133.968 321.395 132.624 321.395 130.8C321.395 127.008 324.371 124.32 328.979 124.32C333.155 124.32 336.035 126.24 337.619 130.128L339.779 128.928C338.051 124.752 334.211 121.872 328.979 121.872C326.051 121.872 323.651 122.688 321.683 124.368C319.763 126 318.803 128.16 318.803 130.896C318.803 132.576 319.331 133.968 319.907 134.976C320.483 135.936 321.971 136.992 322.883 137.568C323.315 137.856 324.035 138.192 324.947 138.576L327.059 139.392L329.459 140.16C332.435 141.12 334.643 142.08 336.035 143.088C337.427 144.096 338.147 145.488 338.147 147.36C338.147 151.344 335.123 154.08 329.699 154.08C324.323 154.08 320.819 151.488 319.619 147.312L317.411 148.608C318.947 153.456 323.507 156.528 329.699 156.528ZM349.635 156H352.179V122.4H349.635V156ZM360.318 122.4V124.8H370.878V156H373.47V124.8H384.03V122.4H360.318ZM412.64 122.4L402.032 139.728L391.376 122.4H388.496L400.736 142.176V156H403.28V142.176L415.52 122.4H412.64Z" fill="black"/>
</svg>
