<svg width="272" height="60" viewBox="0 0 272 60" fill="none" xmlns="http://www.w3.org/2000/svg">
<path d="M3.62727 52.8728L1.03684 49.1428H3.5075L4.87628 51.196L6.24507 49.1428H8.64044L6.05001 52.8283L8.95868 57.0168H6.50513L4.86259 54.5358L3.21663 57.0133H0.793884L3.62727 52.8728Z" fill="#FF2B06"/>
<path d="M19.2245 52.3525H11.5217V50.7236H19.2143L19.2245 52.3525ZM19.2245 55.6136H11.5217V53.9813H19.2143L19.2245 55.6136Z" fill="white"/>
<path d="M25.1172 47.921H22.9545V46.1382H25.1172V47.921ZM22.9545 49.1427H25.1172V57.0132H22.9545V49.1427Z" fill="white"/>
<path d="M26.5168 49.1427H28.5699V50.2377H28.6315C28.8866 49.834 29.2404 49.5021 29.6596 49.2733C30.0788 49.0446 30.5494 48.9266 31.0269 48.9305C33.3265 48.9305 33.9048 50.224 33.9048 52.1745V57.0132H31.7421V52.5646C31.7421 51.2711 31.3622 50.6312 30.3562 50.6312C29.1825 50.6312 28.6828 51.2882 28.6828 52.8863V57.0132H26.5168V49.1427Z" fill="white"/>
<path d="M40.865 56.0071H40.8342C40.3312 56.8626 39.4655 57.2288 38.4389 57.2288C36.064 57.2288 34.9074 55.1756 34.9074 53.0095C34.9074 50.8913 36.0777 48.9271 38.3944 48.9271C38.8518 48.9106 39.306 49.0092 39.7155 49.2136C40.125 49.4181 40.4767 49.7219 40.7384 50.0974H40.7555V46.1382H42.9182V57.0132H40.865V56.0071ZM38.9761 50.5559C37.5594 50.5559 37.0735 51.7742 37.0735 53.0677C37.0735 54.303 37.6347 55.5965 38.9761 55.5965C40.4065 55.5965 40.8342 54.3475 40.8342 53.054C40.8342 51.7605 40.3791 50.5559 38.9761 50.5559Z" fill="white"/>
<path d="M46.0288 53.5914C46.0904 54.9602 46.7577 55.5864 47.9622 55.5864C48.8314 55.5864 49.5295 55.0526 49.6732 54.5598H51.5587C50.9496 56.4179 49.6561 57.2118 47.8732 57.2118C45.3889 57.2118 43.8524 55.5008 43.8524 53.0678C43.8524 50.7067 45.4813 48.9102 47.8732 48.9102C50.5526 48.9102 51.8461 51.1618 51.6955 53.5846L46.0288 53.5914ZM49.5466 52.2226C49.3481 51.1242 48.8622 50.5459 47.8356 50.5459C47.6066 50.5344 47.3777 50.569 47.1624 50.6476C46.9472 50.7263 46.7499 50.8475 46.5823 51.0039C46.4147 51.1603 46.2803 51.3487 46.187 51.5581C46.0936 51.7675 46.0433 51.9934 46.039 52.2226H49.5466Z" fill="white"/>
<path d="M52.6845 49.1428H54.7377V50.1489H54.765C55.0135 49.7562 55.3617 49.4365 55.7741 49.2225C56.1865 49.0085 56.6484 48.9078 57.1125 48.9307C59.5797 48.9307 60.6919 50.9257 60.6919 53.1636C60.6919 55.2647 59.5352 57.2324 57.2323 57.2324C56.7716 57.2436 56.3152 57.1407 55.9039 56.9329C55.4926 56.7252 55.1389 56.419 54.8745 56.0415H54.8437V59.8057H52.6811L52.6845 49.1428ZM58.5326 53.1021C58.5326 51.853 58.0296 50.5595 56.6437 50.5595C55.2578 50.5595 54.7685 51.8222 54.7685 53.1021C54.7685 54.3819 55.2578 55.6001 56.6574 55.6001C58.057 55.6001 58.5326 54.3784 58.5326 53.0986V53.1021Z" fill="white"/>
<path d="M63.4671 53.5914C63.5287 54.9602 64.196 55.5864 65.4005 55.5864C66.2697 55.5864 66.9678 55.0526 67.1115 54.5598H69.0107C68.4016 56.4179 67.1081 57.2118 65.3252 57.2118C62.8409 57.2118 61.3044 55.5008 61.3044 53.0678C61.3044 50.7067 62.9333 48.9102 65.3252 48.9102C68.0046 48.9102 69.2981 51.1618 69.1475 53.5846L63.4671 53.5914ZM66.9849 52.2226C66.7864 51.1242 66.3005 50.5459 65.2739 50.5459C65.0449 50.5344 64.816 50.569 64.6008 50.6476C64.3855 50.7263 64.1882 50.8475 64.0206 51.0039C63.853 51.1603 63.7186 51.3487 63.6253 51.5581C63.532 51.7675 63.4816 51.9934 63.4773 52.2226H66.9849Z" fill="white"/>
<path d="M70.1228 49.1427H72.176V50.2377H72.2205C72.4755 49.834 72.8294 49.5021 73.2485 49.2733C73.6677 49.0446 74.1383 48.9266 74.6158 48.9305C76.9154 48.9305 77.4937 50.224 77.4937 52.1745V57.0132H75.331V52.5646C75.331 51.2711 74.9512 50.6312 73.9451 50.6312C72.7748 50.6312 72.2718 51.2882 72.2718 52.8863V57.0132H70.1091L70.1228 49.1427Z" fill="white"/>
<path d="M84.4676 56.0071H84.4368C83.9338 56.8626 83.0509 57.2288 82.0414 57.2288C79.6461 57.2288 78.5066 55.1756 78.5066 53.0095C78.5066 50.8913 79.6803 48.9271 81.9935 48.9271C82.4515 48.9101 82.9064 49.0083 83.3166 49.2128C83.7267 49.4173 84.0789 49.7214 84.341 50.0974V46.1382H86.5037V57.0132H84.4505L84.4676 56.0071ZM82.5787 50.5559C81.162 50.5559 80.6761 51.7742 80.6761 53.0677C80.6761 54.303 81.2407 55.5965 82.5787 55.5965C84.0125 55.5965 84.4368 54.3475 84.4368 53.054C84.4368 51.7605 83.9817 50.5559 82.5787 50.5559Z" fill="white"/>
<path d="M89.6314 53.5914C89.693 54.9602 90.3637 55.5864 91.5648 55.5864C92.434 55.5864 93.1355 55.0526 93.2758 54.5598H95.1784C94.5693 56.4179 93.2758 57.2118 91.4929 57.2118C89.0086 57.2118 87.4721 55.5008 87.4721 53.0678C87.4721 50.7067 89.101 48.9102 91.4929 48.9102C94.1723 48.9102 95.4693 51.1618 95.3153 53.5846L89.6314 53.5914ZM93.1492 52.2226C92.9507 51.1242 92.4648 50.5459 91.4382 50.5459C91.2093 50.5344 90.9803 50.569 90.7651 50.6476C90.5498 50.7263 90.3525 50.8475 90.1849 51.0039C90.0173 51.1603 89.8829 51.3487 89.7896 51.5581C89.6963 51.7675 89.646 51.9934 89.6417 52.2226H93.1492Z" fill="white"/>
<path d="M96.2871 49.1427H98.3403V50.2377H98.3848C98.6398 49.834 98.9937 49.5021 99.4129 49.2733C99.832 49.0446 100.303 48.9266 100.78 48.9305C103.08 48.9305 103.661 50.224 103.661 52.1745V57.0132H101.519V52.5646C101.519 51.2711 101.136 50.6312 100.13 50.6312C98.9597 50.6312 98.4566 51.2882 98.4566 52.8863V57.0132H96.294L96.2871 49.1427Z" fill="white"/>
<path d="M107.754 49.1426H109.338V50.5901H107.754V54.4877C107.754 55.22 107.939 55.4014 108.668 55.4014C108.897 55.405 109.127 55.3855 109.352 55.3432V57.0337C108.934 57.0895 108.512 57.1146 108.089 57.109C106.762 57.109 105.605 56.8044 105.605 55.2337V50.5867H104.294V49.1426H105.605V46.7815H107.768L107.754 49.1426Z" fill="white"/>
<path d="M110.129 46.1382H112.292V57.0132H110.129V46.1382Z" fill="white"/>
<path d="M117.579 58.0057C117.106 59.2684 116.36 59.7851 114.868 59.7851C114.425 59.7822 113.982 59.7571 113.541 59.7098V57.927C113.961 57.9758 114.384 58.0021 114.807 58.0057C115.553 57.927 115.796 57.1502 115.553 56.5274L112.781 49.1428H115.094L116.877 54.5358H116.918L118.629 49.1428H120.867L117.579 58.0057Z" fill="white"/>
<path d="M129.046 48.9272C131.53 48.9272 133.128 50.5698 133.128 53.0849C133.128 55.6001 131.53 57.2289 129.046 57.2289C126.561 57.2289 124.98 55.583 124.98 53.0849C124.98 50.5869 126.578 48.9272 129.046 48.9272ZM129.046 55.5966C130.524 55.5966 130.965 54.3339 130.965 53.0849C130.965 51.8359 130.524 50.5561 129.046 50.5561C127.567 50.5561 127.143 51.8188 127.143 53.0849C127.143 54.351 127.584 55.5966 129.046 55.5966Z" fill="white"/>
<path d="M133.918 49.1428H135.972V50.604H136.002C136.216 50.1127 136.567 49.6936 137.013 49.3968C137.459 49.1 137.982 48.9381 138.517 48.9307C138.678 48.9332 138.837 48.9585 138.99 49.0059V51.0146C138.734 50.9647 138.474 50.9395 138.213 50.9394C136.629 50.9394 136.078 52.0823 136.078 53.4682V57.0133H133.915L133.918 49.1428Z" fill="white"/>
<path d="M147.11 56.5103C147.11 57.8072 146.652 60.0007 143.028 60.0007C141.474 60.0007 139.66 59.2684 139.554 57.4719H141.703C141.902 58.2795 142.555 58.5532 143.319 58.5532C144.52 58.5532 145.067 57.7285 145.053 56.6027V55.5761H145.023C144.771 55.9686 144.42 56.2879 144.005 56.5017C143.591 56.7156 143.127 56.8165 142.662 56.7943C140.3 56.7943 139.294 54.9978 139.294 52.8351C139.294 50.7819 140.468 48.9375 142.679 48.9375C143.705 48.9375 144.506 49.2797 145.023 50.2002H145.053V49.1428H147.107L147.11 56.5103ZM145.057 52.9788C145.057 51.699 144.615 50.5561 143.212 50.5561C141.994 50.5561 141.46 51.6237 141.46 52.7941C141.46 53.9644 141.888 55.1552 143.212 55.1552C144.444 55.1552 145.053 54.1047 145.053 52.9788H145.057Z" fill="white"/>
<path d="M148.143 51.5622C148.267 49.5364 150.08 48.9272 151.846 48.9272C153.413 48.9272 155.302 49.2694 155.302 51.1652V55.2716C155.302 55.9902 155.381 56.7054 155.576 57.0236H153.382C153.302 56.7775 153.251 56.5223 153.232 56.2639C152.878 56.5963 152.461 56.854 152.005 57.0215C151.55 57.1891 151.065 57.2631 150.58 57.2392C149.088 57.2392 147.901 56.4898 147.901 54.878C147.901 53.0952 149.242 52.6675 150.58 52.4827C151.918 52.2979 153.14 52.3287 153.14 51.4561C153.14 50.5835 152.5 50.3918 151.74 50.3918C150.915 50.3918 150.371 50.734 150.306 51.5793L148.143 51.5622ZM153.14 53.1602C152.773 53.4819 152.014 53.5024 151.343 53.6187C150.672 53.7351 150.063 53.9815 150.063 54.7754C150.063 55.5693 150.689 55.7814 151.387 55.7814C153.078 55.7814 153.14 54.44 153.14 53.9678V53.1602Z" fill="white"/>
<path d="M156.674 49.1427H158.728V50.2377H158.772C159.027 49.834 159.381 49.5021 159.8 49.2733C160.219 49.0446 160.69 48.9266 161.167 48.9305C163.467 48.9305 164.045 50.224 164.045 52.1745V57.0132H161.883V52.5646C161.883 51.2711 161.503 50.6312 160.497 50.6312C159.326 50.6312 158.823 51.2882 158.823 52.8863V57.0132H156.661L156.674 49.1427Z" fill="white"/>
<path d="M167.32 47.921H165.168V46.1382H167.33L167.32 47.921ZM165.168 49.1427H167.33V57.0132H165.168V49.1427Z" fill="white"/>
<path d="M168.247 55.3845L172.354 50.7683H168.538V49.1428H175.177V50.7717L171.071 55.3879H175.468V57.0133H168.247V55.3845Z" fill="white"/>
<path d="M178.103 53.5914C178.164 54.9602 178.832 55.5864 180.036 55.5864C180.905 55.5864 181.607 55.0526 181.747 54.5598H183.646C183.037 56.4179 181.744 57.2118 179.961 57.2118C177.476 57.2118 175.94 55.5008 175.94 53.0678C175.94 50.7067 177.569 48.9102 179.961 48.9102C182.64 48.9102 183.934 51.1618 183.783 53.5846L178.103 53.5914ZM181.62 52.2226C181.422 51.1242 180.936 50.5459 179.909 50.5459C179.681 50.5344 179.452 50.569 179.236 50.6476C179.021 50.7263 178.824 50.8475 178.656 51.0039C178.489 51.1603 178.354 51.3487 178.261 51.5581C178.168 51.7675 178.117 51.9934 178.113 52.2226H181.62Z" fill="white"/>
<path d="M190.377 56.0071H190.346C189.843 56.8626 188.961 57.2288 187.951 57.2288C185.576 57.2288 184.42 55.1756 184.42 53.0095C184.42 50.8913 185.593 48.9271 187.907 48.9271C188.365 48.9101 188.82 49.0083 189.23 49.2128C189.64 49.4173 189.992 49.7214 190.254 50.0974V46.1382H192.417V57.0132H190.364L190.377 56.0071ZM188.488 50.5559C187.072 50.5559 186.586 51.7742 186.586 53.0677C186.586 54.303 187.15 55.5965 188.488 55.5965C189.922 55.5965 190.346 54.3475 190.346 53.054C190.346 51.7605 189.891 50.5559 188.488 50.5559Z" fill="white"/>
<path d="M200.322 48.1503H197.064V46.1382H205.961V48.1503H202.7V57.0132H200.304L200.322 48.1503Z" fill="white"/>
<path d="M206.916 46.1382H215.05V48.1503H209.311V50.4807H214.581V52.3388H209.311V55.0045H215.176V57.0132H206.916V46.1382Z" fill="white"/>
<path d="M216.175 46.1382H220.867C223.687 46.1382 225.801 47.9073 225.801 51.5141C225.801 54.6691 224.19 57.0132 220.867 57.0132H216.175V46.1382ZM218.571 55.0045H220.703C222.089 55.0045 223.416 54.149 223.416 51.7434C223.416 49.5499 222.653 48.1503 220.278 48.1503H218.567L218.571 55.0045Z" fill="white"/>
<path d="M232.642 53.5914C232.7 54.9602 233.371 55.5864 234.575 55.5864C235.445 55.5864 236.143 55.0526 236.286 54.5598H238.192C237.583 56.4179 236.286 57.2118 234.507 57.2118C232.023 57.2118 230.486 55.5008 230.486 53.0678C230.486 50.7067 232.115 48.9102 234.507 48.9102C237.186 48.9102 238.48 51.1618 238.329 53.5846L232.642 53.5914ZM236.16 52.2226C235.961 51.1242 235.475 50.5459 234.449 50.5459C234.22 50.5344 233.991 50.569 233.776 50.6476C233.56 50.7263 233.363 50.8475 233.195 51.0039C233.028 51.1603 232.893 51.3487 232.8 51.5581C232.707 51.7675 232.657 51.9934 232.652 52.2226H236.16Z" fill="white"/>
<path d="M243.349 57.0133H240.954L238.257 49.1428H240.53L242.162 54.5153H242.193L243.873 49.1428H246.018L243.349 57.0133Z" fill="white"/>
<path d="M248.085 53.5914C248.143 54.9602 248.814 55.5864 250.019 55.5864C250.888 55.5864 251.586 55.0526 251.73 54.5598H253.636C253.027 56.4179 251.73 57.2118 249.95 57.2118C247.466 57.2118 245.929 55.5008 245.929 53.0678C245.929 50.7067 247.558 48.9102 249.95 48.9102C252.63 48.9102 253.923 51.1618 253.772 53.5846L248.085 53.5914ZM251.603 52.2226C251.405 51.1242 250.919 50.5459 249.892 50.5459C249.663 50.5344 249.434 50.569 249.219 50.6476C249.004 50.7263 248.806 50.8475 248.639 51.0039C248.471 51.1603 248.337 51.3487 248.243 51.5581C248.15 51.7675 248.1 51.9934 248.095 52.2226H251.603Z" fill="white"/>
<path d="M254.741 49.1427H256.794V50.2377H256.842C257.097 49.834 257.451 49.5021 257.87 49.2733C258.289 49.0446 258.76 48.9266 259.237 48.9305C261.537 48.9305 262.115 50.224 262.115 52.1745V57.0132H259.956V52.5646C259.956 51.2711 259.576 50.6312 258.587 50.6312C257.413 50.6312 256.914 51.2882 256.914 52.8863V57.0132H254.751L254.741 49.1427Z" fill="white"/>
<path d="M266.208 49.1426H267.792V50.5901H266.208V54.4877C266.208 55.22 266.389 55.4014 267.122 55.4014C267.351 55.405 267.58 55.3855 267.806 55.3432V57.0337C267.386 57.0896 266.963 57.1148 266.54 57.109C265.216 57.109 264.059 56.8044 264.059 55.2337V50.5867H262.748V49.1426H264.062V46.7815H266.225L266.208 49.1426Z" fill="white"/>
<path d="M10.153 10.1597H0V0.893066H31.441V10.1734H21.2949V37.1042H10.153V10.1597Z" fill="#FF2B06"/>
<path d="M33.1725 0.893066H63.6929V10.1734H44.328V14.687H63.6929V23.3103H44.328V27.8239H63.6998V37.1042H33.1725V0.893066Z" fill="#FF2B06"/>
<path d="M65.5887 0.893066H83.8962C95.9654 0.893066 100.229 9.81754 100.229 18.9439C100.229 30.055 94.3468 37.1042 81.7164 37.1042H65.5887V0.893066ZM76.7443 27.8239H81.0902C88.0402 27.8239 89.0565 22.1913 89.0565 18.7899C89.0565 16.5109 88.3413 10.1734 80.2757 10.1734H76.7272L76.7443 27.8239Z" fill="#FF2B06"/>
<path d="M116.234 23.1359L112.832 17.4931L109.52 23.1359H101.345L109.106 11.7237L101.636 0.811035H109.811L112.839 6.20405L115.953 0.811035H124.128L116.658 11.7237L124.419 23.1359H116.234Z" fill="#FF2B06"/>
<path d="M157.4 2.0018C160.986 3.88388 163.18 7.18151 163.98 11.8947H159.145C158.552 9.25978 157.333 7.3412 155.487 6.13895C153.641 4.9367 151.309 4.33558 148.489 4.33558C146.895 4.31159 145.315 4.63601 143.859 5.28618C142.403 5.93634 141.107 6.89656 140.061 8.09973C137.779 10.6092 136.639 14.3402 136.639 19.293C136.639 23.5795 137.58 27.0688 139.462 29.7607C141.344 32.4527 144.412 33.7987 148.667 33.7987C151.92 33.7987 154.616 32.8542 156.753 30.9653C158.891 29.0763 159.985 26.0171 160.035 21.7876H148.742V17.736H164.576V37.029H161.434L160.254 32.3922C158.6 34.2059 157.135 35.4606 155.86 36.1564C153.718 37.3678 150.994 37.9734 147.688 37.9734C143.619 38.0497 139.676 36.5657 136.666 33.826C133.31 30.3653 131.633 25.6076 131.633 19.553C131.633 13.4984 133.268 8.69516 136.54 5.14316C139.656 1.74173 143.68 0.039879 148.612 0.0375977C152 0.0375977 154.929 0.692334 157.4 2.0018Z" fill="white"/>
<path d="M172.593 0.971924H198.884V5.38967H177.357V16.3399H197.262V20.5147H177.357V32.738H199.257V37.0291H172.593V0.971924Z" fill="white"/>
<path d="M231.482 3.59993C233.991 6.00215 235.39 8.73971 235.677 11.8126H230.917C230.48 9.66546 229.344 7.72346 227.687 6.28959C226.074 4.92081 223.812 4.24212 220.901 4.25353C217.349 4.25353 214.482 5.5014 212.298 7.99715C210.115 10.4929 209.022 14.3175 209.02 19.471C209.02 23.6937 210.007 27.1156 211.98 29.7369C213.953 32.3581 216.894 33.6721 220.802 33.679C224.402 33.679 227.139 32.2953 229.015 29.5281C230.014 28.0749 230.759 26.1609 231.249 23.7861H236.013C235.586 27.5799 234.178 30.7623 231.79 33.3333C228.925 36.4268 225.062 37.9735 220.203 37.9735C216.015 37.9735 212.497 36.7051 209.65 34.1683C205.904 30.8148 204.03 25.6351 204.027 18.6292C204.027 13.3114 205.435 8.95074 208.25 5.54703C211.293 1.85131 215.491 0.00231042 220.843 2.91093e-05C225.415 -0.00681481 228.961 1.19315 231.482 3.59993Z" fill="white"/>
<path d="M252.428 0.971924H257.951L271.05 37.0291H265.698L262.04 26.2157H247.781L243.873 37.0291H238.87L252.428 0.971924ZM260.456 22.2531L254.98 6.32387L249.163 22.2531H260.456Z" fill="white"/>
</svg>
