<svg width="272" height="62" viewBox="0 0 272 62" fill="none" xmlns="http://www.w3.org/2000/svg">
<path d="M3.62717 54.2345L1.03678 50.4542H3.50741L4.87617 52.5351L6.24494 50.4542H8.64029L6.04989 54.1894L8.95853 58.4344H6.50501L4.86249 55.92L3.21654 58.4309H0.793823L3.62717 54.2345Z" fill="#FF2B06"/>
<path d="M19.2243 53.7074H11.5216V52.0565H19.2141L19.2243 53.7074ZM19.2243 57.0125H11.5216V55.3582H19.2141L19.2243 57.0125Z" fill="black"/>
<path d="M25.117 49.2161H22.9543V47.4092H25.117V49.2161ZM22.9543 50.4542H25.117V58.4309H22.9543V50.4542Z" fill="black"/>
<path d="M26.5164 50.4543H28.5695V51.5641H28.6311C28.8861 51.1549 29.24 50.8185 29.6592 50.5867C30.0783 50.3548 30.5489 50.2352 31.0264 50.2392C33.326 50.2392 33.9043 51.5502 33.9043 53.527V58.431H31.7416V53.9224C31.7416 52.6114 31.3618 51.9629 30.3557 51.9629C29.182 51.9629 28.6824 52.6288 28.6824 54.2484V58.431H26.5164V50.4543Z" fill="black"/>
<path d="M40.8646 57.4113H40.8338C40.3308 58.2783 39.465 58.6494 38.4385 58.6494C36.0637 58.6494 34.907 56.5685 34.907 54.3732C34.907 52.2264 36.0773 50.2357 38.394 50.2357C38.8514 50.2191 39.3056 50.3189 39.7151 50.5261C40.1246 50.7333 40.4763 51.0413 40.738 51.4218H40.7551V47.4092H42.9178V58.4309H40.8646V57.4113ZM38.9757 51.8865C37.559 51.8865 37.0731 53.1212 37.0731 54.4322C37.0731 55.6842 37.6343 56.9951 38.9757 56.9951C40.4061 56.9951 40.8338 55.7292 40.8338 54.4183C40.8338 53.1073 40.3787 51.8865 38.9757 51.8865Z" fill="black"/>
<path d="M46.0282 54.9628C46.0898 56.35 46.7571 56.9847 47.9616 56.9847C48.8308 56.9847 49.5288 56.4437 49.6726 55.9443H51.558C50.9489 57.8275 49.6554 58.6321 47.8726 58.6321C45.3883 58.6321 43.8519 56.898 43.8519 54.4322C43.8519 52.0392 45.4807 50.2184 47.8726 50.2184C50.552 50.2184 51.8455 52.5004 51.6949 54.9559L46.0282 54.9628ZM49.5459 53.5755C49.3475 52.4623 48.8616 51.8762 47.835 51.8762C47.6061 51.8645 47.3772 51.8996 47.1619 51.9793C46.9466 52.0591 46.7493 52.1818 46.5817 52.3403C46.4142 52.4988 46.2797 52.6899 46.1864 52.9021C46.0931 53.1142 46.0428 53.3433 46.0385 53.5755H49.5459Z" fill="black"/>
<path d="M52.6838 50.4542H54.7369V51.4739H54.7643C55.0127 51.0759 55.361 50.7519 55.7734 50.535C56.1858 50.318 56.6477 50.216 57.1118 50.2392C59.579 50.2392 60.6911 52.2611 60.6911 54.5293C60.6911 56.6587 59.5345 58.6529 57.2315 58.6529C56.7708 58.6642 56.3145 58.56 55.9032 58.3494C55.4918 58.1389 55.1382 57.8285 54.8738 57.446H54.843V61.2609H52.6804L52.6838 50.4542ZM58.5319 54.4669C58.5319 53.201 58.0288 51.89 56.6429 51.89C55.2571 51.89 54.7677 53.1698 54.7677 54.4669C54.7677 55.7639 55.2571 56.9986 56.6566 56.9986C58.0562 56.9986 58.5319 55.7605 58.5319 54.4634V54.4669Z" fill="black"/>
<path d="M63.4663 54.9628C63.5279 56.35 64.1952 56.9847 65.3997 56.9847C66.2689 56.9847 66.9669 56.4437 67.1107 55.9443H69.0098C68.4007 57.8275 67.1072 58.6321 65.3244 58.6321C62.8401 58.6321 61.3036 56.898 61.3036 54.4322C61.3036 52.0392 62.9325 50.2184 65.3244 50.2184C68.0038 50.2184 69.2973 52.5004 69.1467 54.9559L63.4663 54.9628ZM66.984 53.5755C66.7856 52.4623 66.2997 51.8762 65.2731 51.8762C65.0441 51.8645 64.8152 51.8996 64.6 51.9793C64.3847 52.0591 64.1874 52.1818 64.0198 52.3403C63.8522 52.4988 63.7178 52.6899 63.6245 52.9021C63.5312 53.1142 63.4809 53.3433 63.4766 53.5755H66.984Z" fill="black"/>
<path d="M70.1219 50.4543H72.175V51.5641H72.2195C72.4746 51.1549 72.8284 50.8185 73.2476 50.5867C73.6668 50.3548 74.1374 50.2352 74.6149 50.2392C76.9144 50.2392 77.4927 51.5502 77.4927 53.527V58.431H75.33V53.9224C75.33 52.6114 74.9502 51.9629 73.9442 51.9629C72.7739 51.9629 72.2708 52.6288 72.2708 54.2484V58.431H70.1082L70.1219 50.4543Z" fill="black"/>
<path d="M84.4665 57.4113H84.4357C83.9327 58.2783 83.0499 58.6494 82.0404 58.6494C79.645 58.6494 78.5056 56.5685 78.5056 54.3732C78.5056 52.2264 79.6793 50.2357 81.9925 50.2357C82.4505 50.2185 82.9054 50.318 83.3155 50.5253C83.7256 50.7325 84.0779 51.0408 84.3399 51.4218V47.4092H86.5026V58.4309H84.4494L84.4665 57.4113ZM82.5776 51.8865C81.161 51.8865 80.6751 53.1212 80.6751 54.4322C80.6751 55.6842 81.2397 56.9951 82.5776 56.9951C84.0114 56.9951 84.4357 55.7292 84.4357 54.4183C84.4357 53.1073 83.9806 51.8865 82.5776 51.8865Z" fill="black"/>
<path d="M89.6303 54.9628C89.6919 56.35 90.3626 56.9847 91.5637 56.9847C92.4329 56.9847 93.1344 56.4437 93.2747 55.9443H95.1773C94.5682 57.8275 93.2747 58.6321 91.4919 58.6321C89.0075 58.6321 87.4711 56.898 87.4711 54.4322C87.4711 52.0392 89.0999 50.2184 91.4919 50.2184C94.1712 50.2184 95.4681 52.5004 95.3141 54.9559L89.6303 54.9628ZM93.1481 53.5755C92.9496 52.4623 92.4637 51.8762 91.4371 51.8762C91.2082 51.8645 90.9793 51.8996 90.764 51.9793C90.5487 52.0591 90.3514 52.1818 90.1838 52.3403C90.0163 52.4988 89.8818 52.6899 89.7885 52.9021C89.6952 53.1142 89.6449 53.3433 89.6406 53.5755H93.1481Z" fill="black"/>
<path d="M96.286 50.4543H98.3392V51.5641H98.3837C98.6387 51.1549 98.9926 50.8185 99.4117 50.5867C99.8309 50.3548 100.302 50.2352 100.779 50.2392C103.079 50.2392 103.66 51.5502 103.66 53.527V58.431H101.518V53.9224C101.518 52.6114 101.135 51.9629 100.129 51.9629C98.9585 51.9629 98.4555 52.6288 98.4555 54.2484V58.431H96.2929L96.286 50.4543Z" fill="black"/>
<path d="M107.753 50.4543H109.337V51.9213H107.753V55.8715C107.753 56.6137 107.938 56.7975 108.667 56.7975C108.896 56.8012 109.125 56.7814 109.351 56.7386V58.4518C108.932 58.5084 108.51 58.5339 108.088 58.5281C106.76 58.5281 105.604 58.2195 105.604 56.6276V51.9178H104.293V50.4543H105.604V48.0613H107.767L107.753 50.4543Z" fill="black"/>
<path d="M110.128 47.4092H112.29V58.4309H110.128V47.4092Z" fill="black"/>
<path d="M117.577 59.4367C117.105 60.7164 116.359 61.2401 114.867 61.2401C114.424 61.2372 113.98 61.2117 113.539 61.1638V59.3569C113.96 59.4064 114.382 59.433 114.806 59.4367C115.552 59.3569 115.794 58.5697 115.552 57.9385L112.78 50.4542H115.093L116.876 55.92H116.917L118.628 50.4542H120.866L117.577 59.4367Z" fill="black"/>
<path d="M129.044 50.2357C131.528 50.2357 133.127 51.9004 133.127 54.4495C133.127 56.9986 131.528 58.6494 129.044 58.6494C126.56 58.6494 124.979 56.9812 124.979 54.4495C124.979 51.9178 126.577 50.2357 129.044 50.2357ZM129.044 56.9951C130.522 56.9951 130.964 55.7154 130.964 54.4495C130.964 53.1836 130.522 51.8866 129.044 51.8866C127.566 51.8866 127.142 53.1663 127.142 54.4495C127.142 55.7327 127.583 56.9951 129.044 56.9951Z" fill="black"/>
<path d="M133.917 50.4543H135.97V51.9352H136.001C136.215 51.4373 136.566 51.0124 137.012 50.7116C137.458 50.4108 137.98 50.2468 138.516 50.2393C138.676 50.2418 138.835 50.2675 138.988 50.3156V52.3513C138.732 52.3007 138.472 52.2752 138.212 52.275C136.627 52.275 136.076 53.4334 136.076 54.838V58.431H133.914L133.917 50.4543Z" fill="black"/>
<path d="M147.108 57.9211C147.108 59.2355 146.65 61.4586 143.026 61.4586C141.472 61.4586 139.659 60.7164 139.553 58.8956H141.702C141.9 59.7141 142.554 59.9916 143.317 59.9916C144.518 59.9916 145.065 59.1557 145.052 58.0147V56.9743H145.021C144.769 57.3721 144.418 57.6957 144.004 57.9124C143.589 58.1292 143.126 58.2314 142.66 58.2089C140.299 58.2089 139.293 56.3882 139.293 54.1963C139.293 52.1154 140.466 50.2461 142.677 50.2461C143.704 50.2461 144.504 50.5929 145.021 51.5258H145.052V50.4542H147.105L147.108 57.9211ZM145.055 54.342C145.055 53.0449 144.614 51.8865 143.211 51.8865C141.993 51.8865 141.459 52.9686 141.459 54.1547C141.459 55.3408 141.886 56.5477 143.211 56.5477C144.443 56.5477 145.052 55.483 145.052 54.342H145.055Z" fill="black"/>
<path d="M148.142 52.9062C148.265 50.853 150.079 50.2357 151.844 50.2357C153.412 50.2357 155.301 50.5825 155.301 52.5039V56.6656C155.301 57.3939 155.379 58.1188 155.574 58.4413H153.381C153.3 58.1919 153.249 57.9333 153.23 57.6714C152.876 58.0083 152.459 58.2694 152.004 58.4392C151.548 58.609 151.063 58.6841 150.578 58.6598C149.086 58.6598 147.899 57.9003 147.899 56.2668C147.899 54.4599 149.24 54.0264 150.578 53.8391C151.916 53.6518 153.138 53.683 153.138 52.7987C153.138 51.9143 152.498 51.7201 151.738 51.7201C150.914 51.7201 150.37 52.0669 150.305 52.9235L148.142 52.9062ZM153.138 54.5258C152.772 54.8518 152.012 54.8726 151.341 54.9905C150.671 55.1084 150.062 55.3582 150.062 56.1628C150.062 56.9674 150.688 57.1824 151.386 57.1824C153.076 57.1824 153.138 55.8229 153.138 55.3443V54.5258Z" fill="black"/>
<path d="M156.673 50.4543H158.726V51.5641H158.77C159.025 51.1549 159.379 50.8185 159.798 50.5867C160.218 50.3548 160.688 50.2352 161.166 50.2392C163.465 50.2392 164.044 51.5502 164.044 53.527V58.431H161.881V53.9224C161.881 52.6114 161.501 51.9629 160.495 51.9629C159.325 51.9629 158.822 52.6288 158.822 54.2484V58.431H156.659L156.673 50.4543Z" fill="black"/>
<path d="M167.318 49.2161H165.166V47.4092H167.328L167.318 49.2161ZM165.166 50.4542H167.328V58.4309H165.166V50.4542Z" fill="black"/>
<path d="M168.246 56.7801L172.352 52.1016H168.536V50.4542H175.175V52.1051L171.069 56.7836H175.466V58.4309H168.246V56.7801Z" fill="black"/>
<path d="M178.101 54.9628C178.162 56.35 178.83 56.9847 180.034 56.9847C180.903 56.9847 181.605 56.4437 181.745 55.9443H183.644C183.035 57.8275 181.742 58.6321 179.959 58.6321C177.474 58.6321 175.938 56.898 175.938 54.4322C175.938 52.0392 177.567 50.2184 179.959 50.2184C182.638 50.2184 183.932 52.5004 183.781 54.9559L178.101 54.9628ZM181.618 53.5755C181.42 52.4623 180.934 51.8762 179.907 51.8762C179.679 51.8645 179.45 51.8996 179.234 51.9793C179.019 52.0591 178.822 52.1818 178.654 52.3403C178.487 52.4988 178.352 52.6899 178.259 52.9021C178.166 53.1142 178.115 53.3433 178.111 53.5755H181.618Z" fill="black"/>
<path d="M190.375 57.4113H190.344C189.841 58.2783 188.959 58.6494 187.949 58.6494C185.574 58.6494 184.418 56.5685 184.418 54.3732C184.418 52.2264 185.591 50.2357 187.905 50.2357C188.363 50.2185 188.817 50.318 189.228 50.5253C189.638 50.7325 189.99 51.0408 190.252 51.4218V47.4092H192.415V58.4309H190.361L190.375 57.4113ZM188.486 51.8865C187.07 51.8865 186.584 53.1212 186.584 54.4322C186.584 55.6842 187.148 56.9951 188.486 56.9951C189.92 56.9951 190.344 55.7292 190.344 54.4183C190.344 53.1073 189.889 51.8865 188.486 51.8865Z" fill="black"/>
<path d="M200.319 49.4484H197.061V47.4092H205.958V49.4484H202.697V58.4309H200.302L200.319 49.4484Z" fill="black"/>
<path d="M206.913 47.4092H215.047V49.4484H209.309V51.8103H214.579V53.6934H209.309V56.3951H215.174V58.4309H206.913V47.4092Z" fill="black"/>
<path d="M216.173 47.4092H220.864C223.684 47.4092 225.799 49.2022 225.799 52.8576C225.799 56.0553 224.187 58.4309 220.864 58.4309H216.173V47.4092ZM218.568 56.3951H220.7C222.086 56.3951 223.414 55.5281 223.414 53.09C223.414 50.8669 222.651 49.4484 220.276 49.4484H218.565L218.568 56.3951Z" fill="black"/>
<path d="M232.639 54.9628C232.698 56.35 233.368 56.9847 234.573 56.9847C235.442 56.9847 236.14 56.4437 236.284 55.9443H238.19C237.581 57.8275 236.284 58.6321 234.504 58.6321C232.02 58.6321 230.484 56.898 230.484 54.4322C230.484 52.0392 232.112 50.2184 234.504 50.2184C237.184 50.2184 238.477 52.5004 238.327 54.9559L232.639 54.9628ZM236.157 53.5755C235.959 52.4623 235.473 51.8762 234.446 51.8762C234.217 51.8645 233.988 51.8996 233.773 51.9793C233.558 52.0591 233.36 52.1818 233.193 52.3403C233.025 52.4988 232.891 52.6899 232.798 52.9021C232.704 53.1142 232.654 53.3433 232.65 53.5755H236.157Z" fill="black"/>
<path d="M243.347 58.4309H240.951L238.255 50.4542H240.527L242.159 55.8992H242.19L243.87 50.4542H246.016L243.347 58.4309Z" fill="black"/>
<path d="M248.083 54.9628C248.141 56.35 248.811 56.9847 250.016 56.9847C250.885 56.9847 251.583 56.4437 251.727 55.9443H253.633C253.024 57.8275 251.727 58.6321 249.947 58.6321C247.463 58.6321 245.927 56.898 245.927 54.4322C245.927 52.0392 247.556 50.2184 249.947 50.2184C252.627 50.2184 253.92 52.5004 253.77 54.9559L248.083 54.9628ZM251.6 53.5755C251.402 52.4623 250.916 51.8762 249.889 51.8762C249.66 51.8645 249.431 51.8996 249.216 51.9793C249.001 52.0591 248.804 52.1818 248.636 52.3403C248.468 52.4988 248.334 52.6899 248.241 52.9021C248.147 53.1142 248.097 53.3433 248.093 53.5755H251.6Z" fill="black"/>
<path d="M254.738 50.4543H256.791V51.5641H256.839C257.094 51.1549 257.448 50.8185 257.867 50.5867C258.286 50.3548 258.757 50.2352 259.235 50.2392C261.534 50.2392 262.112 51.5502 262.112 53.527V58.431H259.953V53.9224C259.953 52.6114 259.573 51.9629 258.584 51.9629C257.411 51.9629 256.911 52.6288 256.911 54.2484V58.431H254.748L254.738 50.4543Z" fill="black"/>
<path d="M266.205 50.4543H267.789V51.9213H266.205V55.8715C266.205 56.6137 266.386 56.7975 267.119 56.7975C267.348 56.8012 267.577 56.7814 267.803 56.7386V58.4518C267.383 58.5085 266.96 58.534 266.537 58.5281C265.213 58.5281 264.056 58.2194 264.056 56.6276V51.9178H262.745V50.4543H264.059V48.0613H266.222L266.205 50.4543Z" fill="black"/>
<path d="M10.1528 10.9453H0V1.55359H31.4406V10.9592H21.2946V38.2534H10.1528V10.9453Z" fill="#FF2B06"/>
<path d="M33.172 1.55359H63.6921V10.9592H44.3274V15.5336H63.6921V24.2734H44.3274V28.8478H63.6989V38.2534H33.172V1.55359Z" fill="#FF2B06"/>
<path d="M65.5879 1.55359H83.8952C95.9643 1.55359 100.228 10.5985 100.228 19.848C100.228 31.1091 94.3457 38.2534 81.7154 38.2534H65.5879V1.55359ZM76.7434 28.8478H81.0892C88.0391 28.8478 89.0554 23.1393 89.0554 19.6919C89.0554 17.3822 88.3402 10.9592 80.2748 10.9592H76.7262L76.7434 28.8478Z" fill="#FF2B06"/>
<path d="M116.232 24.0965L112.831 18.3775L109.519 24.0965H101.344L109.105 12.5302L101.634 1.47034H109.809L112.838 6.93612L115.952 1.47034H124.127L116.657 12.5302L124.418 24.0965H116.232Z" fill="#FF2B06"/>
<path d="M157.398 2.67724C160.984 4.58471 163.178 7.92683 163.979 12.7036H159.143C158.55 10.0331 157.331 8.08868 155.485 6.87021C153.64 5.65174 151.307 5.0425 148.487 5.0425C146.893 5.01819 145.313 5.34699 143.857 6.00593C142.402 6.66487 141.105 7.63804 140.059 8.85745C137.778 11.4008 136.637 15.1822 136.637 20.2017C136.637 24.5461 137.578 28.0825 139.46 30.8107C141.343 33.539 144.411 34.9032 148.665 34.9032C151.919 34.9032 154.614 33.9459 156.751 32.0315C158.889 30.1171 159.983 27.0166 160.033 22.73H148.741V18.6237H164.574V38.1771H161.433L160.252 33.4777C158.598 35.3159 157.134 36.5875 155.858 37.2927C153.716 38.5204 150.992 39.1343 147.687 39.1343C143.618 39.2116 139.674 37.7076 136.665 34.9309C133.309 31.4235 131.631 26.6016 131.631 20.4653C131.631 14.329 133.267 9.46091 136.538 5.86098C139.654 2.41365 143.679 0.688836 148.611 0.686523C151.998 0.686523 154.928 1.3501 157.398 2.67724Z" fill="black"/>
<path d="M172.592 1.6333H198.882V6.11067H177.355V17.2087H197.26V21.4398H177.355V33.828H199.255V38.1771H172.592V1.6333Z" fill="black"/>
<path d="M231.479 4.29683C233.989 6.73146 235.387 9.50597 235.675 12.6204H230.915C230.477 10.4442 229.341 8.476 227.684 7.02278C226.072 5.63553 223.81 4.94768 220.899 4.95924C217.347 4.95924 214.479 6.22395 212.296 8.75338C210.113 11.2828 209.02 15.159 209.018 20.382C209.018 24.6617 210.004 28.1299 211.978 30.7865C213.951 33.443 216.892 34.7748 220.8 34.7817C224.399 34.7817 227.137 33.3795 229.012 30.5749C230.011 29.1021 230.756 27.1622 231.247 24.7554H236.01C235.583 28.6004 234.176 31.8257 231.787 34.4315C228.922 37.5667 225.06 39.1343 220.201 39.1343C216.012 39.1343 212.494 37.8487 209.647 35.2777C205.902 31.8789 204.028 26.6293 204.025 19.5289C204.025 14.1394 205.433 9.71984 208.248 6.2702C211.291 2.52461 215.489 0.650657 220.841 0.648345C225.412 0.641409 228.958 1.85757 231.479 4.29683Z" fill="black"/>
<path d="M252.425 1.6333H257.948L271.047 38.1771H265.695L262.037 27.2177H247.778L243.87 38.1771H238.867L252.425 1.6333ZM260.453 23.2016L254.978 7.05747L249.161 23.2016H260.453Z" fill="black"/>
</svg>
