<svg width="48" height="48" viewBox="0 0 48 48" fill="none" xmlns="http://www.w3.org/2000/svg">
<path fill-rule="evenodd" clip-rule="evenodd" d="M47.52 14.3339C47.52 14.3339 47.0505 11.0027 45.612 9.53612C43.7865 7.61013 41.7405 7.60113 40.803 7.48938C34.086 7 24.0105 7 24.0105 7H23.9895C23.9895 7 13.914 7 7.197 7.48938C6.258 7.60113 4.2135 7.61013 2.3865 9.53612C0.948 11.0031 0.48 14.3339 0.48 14.3339C0.48 14.3339 0 18.2466 0 22.1575V25.8254C0 29.7377 0.48 33.649 0.48 33.649C0.48 33.649 0.948 36.9801 2.3865 38.4467C4.2135 40.3727 6.612 40.3124 7.68 40.5134C11.52 40.885 24 40.9997 24 40.9997C24 40.9997 34.086 40.9847 40.803 40.4954C41.7405 40.3821 43.7865 40.3731 45.612 38.4471C47.0505 36.9801 47.52 33.6494 47.52 33.6494C47.52 33.6494 48 29.7381 48 25.8254V22.1575C48 18.2466 47.52 14.3339 47.52 14.3339ZM19.044 30.2699L19.0425 16.6877L32.0115 23.5022L19.044 30.2699Z" fill="white"/>
</svg>
