<svg width="243" height="41" viewBox="0 0 243 41" fill="none" xmlns="http://www.w3.org/2000/svg">
<path id="EXPLORE" d="M3.10187 21.632H21.0219V18.832H3.10187V3.6H22.4219V0.799997H0.133872V40H22.7019V37.2H3.10187V21.632ZM46.2332 19.84L58.5532 0.799997H55.1372L44.5532 17.208L33.9132 0.799997H30.4972L42.8172 19.84L29.7692 40H33.2412L44.5532 22.528L55.8652 40H59.2812L46.2332 19.84ZM68.8148 0.799997V40H71.7828V25.048H82.1428C85.6708 25.048 88.5828 23.928 90.8788 21.632C93.1748 19.336 94.3508 16.424 94.3508 12.952C94.3508 9.48 93.1748 6.568 90.8788 4.272C88.5828 1.976 85.6708 0.799997 82.1428 0.799997H68.8148ZM71.7828 22.248V3.6H82.1428C84.8308 3.6 87.0148 4.496 88.7508 6.232C90.4868 7.968 91.3828 10.208 91.3828 12.952C91.3828 15.64 90.4868 17.88 88.7508 19.616C87.0148 21.352 84.8308 22.248 82.1428 22.248H71.7828ZM108.01 0.799997H105.042V40H126.49V37.2H108.01V0.799997ZM165.542 34.736C169.462 30.76 171.422 26 171.422 20.4C171.422 14.8 169.462 10.04 165.542 6.12C161.622 2.144 156.862 0.183999 151.206 0.183999C145.55 0.183999 140.79 2.144 136.87 6.12C132.95 10.04 130.99 14.8 130.99 20.4C130.99 26 132.95 30.76 136.87 34.736C140.79 38.656 145.55 40.616 151.206 40.616C156.862 40.616 161.622 38.656 165.542 34.736ZM138.942 32.72C135.638 29.304 133.958 25.216 133.958 20.4C133.958 15.584 135.638 11.496 138.942 8.136C142.302 4.72 146.39 3.04 151.206 3.04C156.022 3.04 160.11 4.72 163.414 8.136C166.774 11.496 168.454 15.584 168.454 20.4C168.454 25.216 166.774 29.304 163.414 32.72C160.11 36.08 156.022 37.76 151.206 37.76C146.39 37.76 142.302 36.08 138.942 32.72ZM210.477 40L200.733 23.536C203.253 22.864 205.269 21.52 206.893 19.448C208.517 17.376 209.357 15.024 209.357 12.392C209.357 9.2 208.237 6.512 205.941 4.216C203.645 1.92 200.957 0.799997 197.765 0.799997H182.309V40H185.277V23.928H197.653L207.061 40H210.477ZM197.765 3.6C200.173 3.6 202.189 4.44 203.869 6.176C205.549 7.912 206.389 9.984 206.389 12.392C206.389 14.8 205.549 16.872 203.869 18.608C202.189 20.288 200.173 21.128 197.765 21.128H185.277V3.6H197.765ZM222.981 21.632H240.901V18.832H222.981V3.6H242.301V0.799997H220.013V40H242.581V37.2H222.981V21.632Z" fill="black"/>
</svg>
