<svg width="184" height="184" viewBox="0 0 184 184" fill="none" xmlns="http://www.w3.org/2000/svg">
<g id="Group 8">
<g id="dot matrix">
<circle id="Ellipse 7" cx="2" cy="2" r="2" fill="#E62B1E"/>
<circle id="Ellipse 55" cx="2" cy="82" r="2" fill="#E62B1E"/>
<circle id="Ellipse 103" cx="2" cy="162" r="2" fill="#E62B1E"/>
<circle id="Ellipse 31" cx="2" cy="42" r="2" fill="#E62B1E"/>
<circle id="Ellipse 56" cx="2" cy="122" r="2" fill="#E62B1E"/>
<circle id="Ellipse 19" cx="2" cy="22" r="2" fill="#E62B1E"/>
<circle id="Ellipse 57" cx="2" cy="102" r="2" fill="#E62B1E"/>
<circle id="Ellipse 105" cx="2" cy="182" r="2" fill="#E62B1E"/>
<circle id="Ellipse 32" cx="2" cy="62" r="2" fill="#E62B1E"/>
<circle id="Ellipse 58" cx="2" cy="142" r="2" fill="#E62B1E"/>
<circle id="Ellipse 8" cx="22" cy="2" r="2" fill="#E62B1E"/>
<circle id="Ellipse 59" cx="22" cy="82" r="2" fill="#E62B1E"/>
<circle id="Ellipse 107" cx="22" cy="162" r="2" fill="#E62B1E"/>
<circle id="Ellipse 33" cx="22" cy="42" r="2" fill="#E62B1E"/>
<circle id="Ellipse 60" cx="22" cy="122" r="2" fill="#E62B1E"/>
<circle id="Ellipse 20" cx="22" cy="22" r="2" fill="#E62B1E"/>
<circle id="Ellipse 61" cx="22" cy="102" r="2" fill="#E62B1E"/>
<circle id="Ellipse 109" cx="22" cy="182" r="2" fill="#E62B1E"/>
<circle id="Ellipse 34" cx="22" cy="62" r="2" fill="#E62B1E"/>
<circle id="Ellipse 62" cx="22" cy="142" r="2" fill="#E62B1E"/>
<circle id="Ellipse 9" cx="42" cy="2" r="2" fill="#E62B1E"/>
<circle id="Ellipse 63" cx="42" cy="82" r="2" fill="#E62B1E"/>
<circle id="Ellipse 111" cx="42" cy="162" r="2" fill="#E62B1E"/>
<circle id="Ellipse 35" cx="42" cy="42" r="2" fill="#E62B1E"/>
<circle id="Ellipse 64" cx="42" cy="122" r="2" fill="#E62B1E"/>
<circle id="Ellipse 21" cx="42" cy="22" r="2" fill="#E62B1E"/>
<circle id="Ellipse 65" cx="42" cy="102" r="2" fill="#E62B1E"/>
<circle id="Ellipse 113" cx="42" cy="182" r="2" fill="#E62B1E"/>
<circle id="Ellipse 36" cx="42" cy="62" r="2" fill="#E62B1E"/>
<circle id="Ellipse 66" cx="42" cy="142" r="2" fill="#E62B1E"/>
<circle id="Ellipse 10" cx="62" cy="2" r="2" fill="#E62B1E"/>
<circle id="Ellipse 67" cx="62" cy="82" r="2" fill="#E62B1E"/>
<circle id="Ellipse 115" cx="62" cy="162" r="2" fill="#E62B1E"/>
<circle id="Ellipse 37" cx="62" cy="42" r="2" fill="#E62B1E"/>
<circle id="Ellipse 68" cx="62" cy="122" r="2" fill="#E62B1E"/>
<circle id="Ellipse 22" cx="62" cy="22" r="2" fill="#E62B1E"/>
<circle id="Ellipse 69" cx="62" cy="102" r="2" fill="#E62B1E"/>
<circle id="Ellipse 117" cx="62" cy="182" r="2" fill="#E62B1E"/>
<circle id="Ellipse 38" cx="62" cy="62" r="2" fill="#E62B1E"/>
<circle id="Ellipse 70" cx="62" cy="142" r="2" fill="#E62B1E"/>
<circle id="Ellipse 11" cx="82" cy="2" r="2" fill="#E62B1E"/>
<circle id="Ellipse 71" cx="82" cy="82" r="2" fill="#E62B1E"/>
<circle id="Ellipse 119" cx="82" cy="162" r="2" fill="#E62B1E"/>
<circle id="Ellipse 39" cx="82" cy="42" r="2" fill="#E62B1E"/>
<circle id="Ellipse 72" cx="82" cy="122" r="2" fill="#E62B1E"/>
<circle id="Ellipse 23" cx="82" cy="22" r="2" fill="#E62B1E"/>
<circle id="Ellipse 73" cx="82" cy="102" r="2" fill="#E62B1E"/>
<circle id="Ellipse 121" cx="82" cy="182" r="2" fill="#E62B1E"/>
<circle id="Ellipse 40" cx="82" cy="62" r="2" fill="#E62B1E"/>
<circle id="Ellipse 74" cx="82" cy="142" r="2" fill="#E62B1E"/>
<circle id="Ellipse 12" cx="102" cy="2" r="2" fill="#E62B1E"/>
<circle id="Ellipse 75" cx="102" cy="82" r="2" fill="#E62B1E"/>
<circle id="Ellipse 123" cx="102" cy="162" r="2" fill="#E62B1E"/>
<circle id="Ellipse 41" cx="102" cy="42" r="2" fill="#E62B1E"/>
<circle id="Ellipse 76" cx="102" cy="122" r="2" fill="#E62B1E"/>
<circle id="Ellipse 24" cx="102" cy="22" r="2" fill="#E62B1E"/>
<circle id="Ellipse 77" cx="102" cy="102" r="2" fill="#E62B1E"/>
<circle id="Ellipse 125" cx="102" cy="182" r="2" fill="#E62B1E"/>
<circle id="Ellipse 42" cx="102" cy="62" r="2" fill="#E62B1E"/>
<circle id="Ellipse 78" cx="102" cy="142" r="2" fill="#E62B1E"/>
<circle id="Ellipse 13" cx="122" cy="2" r="2" fill="#E62B1E"/>
<circle id="Ellipse 79" cx="122" cy="82" r="2" fill="#E62B1E"/>
<circle id="Ellipse 127" cx="122" cy="162" r="2" fill="#E62B1E"/>
<circle id="Ellipse 43" cx="122" cy="42" r="2" fill="#E62B1E"/>
<circle id="Ellipse 80" cx="122" cy="122" r="2" fill="#E62B1E"/>
<circle id="Ellipse 25" cx="122" cy="22" r="2" fill="#E62B1E"/>
<circle id="Ellipse 81" cx="122" cy="102" r="2" fill="#E62B1E"/>
<circle id="Ellipse 129" cx="122" cy="182" r="2" fill="#E62B1E"/>
<circle id="Ellipse 44" cx="122" cy="62" r="2" fill="#E62B1E"/>
<circle id="Ellipse 82" cx="122" cy="142" r="2" fill="#E62B1E"/>
<circle id="Ellipse 14" cx="142" cy="2" r="2" fill="#E62B1E"/>
<circle id="Ellipse 83" cx="142" cy="82" r="2" fill="#E62B1E"/>
<circle id="Ellipse 131" cx="142" cy="162" r="2" fill="#E62B1E"/>
<circle id="Ellipse 45" cx="142" cy="42" r="2" fill="#E62B1E"/>
<circle id="Ellipse 84" cx="142" cy="122" r="2" fill="#E62B1E"/>
<circle id="Ellipse 26" cx="142" cy="22" r="2" fill="#E62B1E"/>
<circle id="Ellipse 85" cx="142" cy="102" r="2" fill="#E62B1E"/>
<circle id="Ellipse 133" cx="142" cy="182" r="2" fill="#E62B1E"/>
<circle id="Ellipse 46" cx="142" cy="62" r="2" fill="#E62B1E"/>
<circle id="Ellipse 86" cx="142" cy="142" r="2" fill="#E62B1E"/>
<circle id="Ellipse 15" cx="162" cy="2" r="2" fill="#E62B1E"/>
<circle id="Ellipse 87" cx="162" cy="82" r="2" fill="#E62B1E"/>
<circle id="Ellipse 135" cx="162" cy="162" r="2" fill="#E62B1E"/>
<circle id="Ellipse 47" cx="162" cy="42" r="2" fill="#E62B1E"/>
<circle id="Ellipse 88" cx="162" cy="122" r="2" fill="#E62B1E"/>
<circle id="Ellipse 27" cx="162" cy="22" r="2" fill="#E62B1E"/>
<circle id="Ellipse 89" cx="162" cy="102" r="2" fill="#E62B1E"/>
<circle id="Ellipse 137" cx="162" cy="182" r="2" fill="#E62B1E"/>
<circle id="Ellipse 48" cx="162" cy="62" r="2" fill="#E62B1E"/>
<circle id="Ellipse 90" cx="162" cy="142" r="2" fill="#E62B1E"/>
<circle id="Ellipse 16" cx="182" cy="2" r="2" fill="#E62B1E"/>
<circle id="Ellipse 91" cx="182" cy="82" r="2" fill="#E62B1E"/>
<circle id="Ellipse 139" cx="182" cy="162" r="2" fill="#E62B1E"/>
<circle id="Ellipse 49" cx="182" cy="42" r="2" fill="#E62B1E"/>
<circle id="Ellipse 92" cx="182" cy="122" r="2" fill="#E62B1E"/>
<circle id="Ellipse 28" cx="182" cy="22" r="2" fill="#E62B1E"/>
<circle id="Ellipse 93" cx="182" cy="102" r="2" fill="#E62B1E"/>
<circle id="Ellipse 141" cx="182" cy="182" r="2" fill="#E62B1E"/>
<circle id="Ellipse 50" cx="182" cy="62" r="2" fill="#E62B1E"/>
<circle id="Ellipse 94" cx="182" cy="142" r="2" fill="#E62B1E"/>
</g>
</g>
</svg>
