<svg width="72" height="73" viewBox="0 0 72 73" fill="none" xmlns="http://www.w3.org/2000/svg">
<path id="X" d="M28.75 35.48L30.4009 36.6089L31.1741 35.4781L30.3992 34.3486L28.75 35.48ZM6.094 2.456V0.455996H2.29649L4.4448 3.58743L6.094 2.456ZM20.398 2.456L22.0804 1.37448L21.4899 0.455996H20.398V2.456ZM35.95 26.648L34.2676 27.7295L35.9146 30.2915L37.6111 27.762L35.95 26.648ZM52.174 2.456V0.455996H51.1072L50.513 1.34204L52.174 2.456ZM65.614 2.456L67.2632 3.58743L69.4115 0.455996H65.614V2.456ZM42.958 35.48L41.3088 34.3486L40.5339 35.4781L41.3071 36.6089L42.958 35.48ZM67.246 71V73H71.0364L68.8969 69.8711L67.246 71ZM52.654 71L50.9787 72.0923L51.5705 73H52.654V71ZM35.566 44.792L37.2413 43.6997L35.58 41.1516L33.8991 43.6868L35.566 44.792ZM18.19 71V73H19.2636L19.8569 72.1052L18.19 71ZM4.462 71L2.81106 69.8711L0.671574 73H4.462V71ZM30.3992 34.3486L7.7432 1.32457L4.4448 3.58743L27.1008 36.6114L30.3992 34.3486ZM6.094 4.456H20.398V0.455996H6.094V4.456ZM18.7156 3.53751L34.2676 27.7295L37.6324 25.5665L22.0804 1.37448L18.7156 3.53751ZM37.6111 27.762L53.8351 3.56996L50.513 1.34204L34.2889 25.534L37.6111 27.762ZM52.174 4.456H65.614V0.455996H52.174V4.456ZM63.9648 1.32457L41.3088 34.3486L44.6072 36.6114L67.2632 3.58743L63.9648 1.32457ZM41.3071 36.6089L65.5951 72.1289L68.8969 69.8711L44.6089 34.3511L41.3071 36.6089ZM67.246 69H52.654V73H67.246V69ZM54.3293 69.9077L37.2413 43.6997L33.8907 45.8843L50.9787 72.0923L54.3293 69.9077ZM33.8991 43.6868L16.5231 69.8948L19.8569 72.1052L37.2329 45.8972L33.8991 43.6868ZM18.19 69H4.462V73H18.19V69ZM6.11294 72.1289L30.4009 36.6089L27.0991 34.3511L2.81106 69.8711L6.11294 72.1289Z" fill="#E62B1E"/>
</svg>
